<svg xmlns="http://www.w3.org/2000/svg" viewBox="0 0 383.56 65.94"><defs><style>.a,.b{fill:#fff;}.a{fill-rule:evenodd;}</style></defs><path class="a" d="M55.14,9.14a28.4,28.4,0,1,0,8.31,20.07A28.3,28.3,0,0,0,55.14,9.14M35.06,0A29.22,29.22,0,1,1,5.85,29.21,29.22,29.22,0,0,1,35.06,0Z"/><path class="a" d="M49.29,14.43A28.4,28.4,0,1,0,57.6,34.5a28.31,28.31,0,0,0-8.31-20.07M29.21,5.29A29.22,29.22,0,1,1,0,34.5,29.22,29.22,0,0,1,29.21,5.29Z"/><path class="a" d="M38.53,8.34A28.39,28.39,0,1,0,58.6,16.65,28.29,28.29,0,0,0,38.53,8.34M17.87,16.07a29.21,29.21,0,1,1,0,41.31A29.22,29.22,0,0,1,17.87,16.07Z"/><path class="b" d="M28.5,35.7l-2.91-8.37L22.68,35.7Zm-8.92,8.74H15L23.59,21.5h4l6.28,16.84L40.15,21.5h4l8.55,22.94H48.16C44.19,33,47,41,42.15,27.33l-6,17.11H31.6L30,39.7H21.22Z"/><path class="b" d="M84.67,20.12l-.6,1.8H81.82l3.37-9.44h2.25l3.37,9.44H88.57l-.6-1.8Zm2.7-1.88L86.32,15.1l-1,3.14Z"/><path class="b" d="M95.83,19.89a2.18,2.18,0,0,0,1.42-.42,2.07,2.07,0,0,0,.68-1l2.25.15a4.54,4.54,0,0,1-.54,1.29A4.15,4.15,0,0,1,98.71,21a4.59,4.59,0,0,1-1.28.73,4.63,4.63,0,0,1-3.4-.09,4.48,4.48,0,0,1-1.48-1,5.13,5.13,0,0,1-1-1.53,4.84,4.84,0,0,1-.36-1.88,4.79,4.79,0,0,1,1.36-3.41,4.57,4.57,0,0,1,3.28-1.39,4.2,4.2,0,0,1,1.56.28,4.42,4.42,0,0,1,1.25.73,4.32,4.32,0,0,1,.93,1.07,4.54,4.54,0,0,1,.54,1.29l-2.25.15a2.24,2.24,0,0,0-.26-.54,1.79,1.79,0,0,0-.42-.45,2.06,2.06,0,0,0-.59-.31,2.24,2.24,0,0,0-.76-.12,2.34,2.34,0,0,0-1,.2,2.47,2.47,0,0,0-.79.56,2.59,2.59,0,0,0-.53.86,2.92,2.92,0,0,0-.2,1.08,2.87,2.87,0,0,0,.2,1.07,2.59,2.59,0,0,0,.53.86,2.32,2.32,0,0,0,.79.56A2.19,2.19,0,0,0,95.83,19.89Z"/><path class="b" d="M105.58,19.89a2.16,2.16,0,0,0,1.41-.42,2,2,0,0,0,.68-1l2.25.15a4.54,4.54,0,0,1-.54,1.29,4.15,4.15,0,0,1-.93,1.07,4.45,4.45,0,0,1-1.28.73,4.32,4.32,0,0,1-1.59.28,4.41,4.41,0,0,1-1.81-.37,4.48,4.48,0,0,1-1.48-1,4.92,4.92,0,0,1-1-1.53,4.67,4.67,0,0,1-.37-1.88,4.9,4.9,0,0,1,1.36-3.41,4.36,4.36,0,0,1,1.48-1,4.41,4.41,0,0,1,1.81-.37,4.15,4.15,0,0,1,1.55.28,4.62,4.62,0,0,1,1.26.73,4.5,4.5,0,0,1,1.46,2.36l-2.25.15a2.24,2.24,0,0,0-.26-.54,1.79,1.79,0,0,0-.42-.45,2.06,2.06,0,0,0-.59-.31,2.23,2.23,0,0,0-.75-.12,2.39,2.39,0,0,0-1,.2,2.47,2.47,0,0,0-.79.56,2.59,2.59,0,0,0-.53.86,2.92,2.92,0,0,0-.2,1.08,2.87,2.87,0,0,0,.2,1.07,2.59,2.59,0,0,0,.53.86,2.32,2.32,0,0,0,.79.56A2.23,2.23,0,0,0,105.58,19.89Z"/><path class="b" d="M120,17.2a4.67,4.67,0,0,1-.37,1.88,4.92,4.92,0,0,1-1,1.53,4.48,4.48,0,0,1-1.48,1,4.36,4.36,0,0,1-1.8.37,4.41,4.41,0,0,1-1.81-.37,4.58,4.58,0,0,1-1.48-1,4.92,4.92,0,0,1-1-1.53,4.67,4.67,0,0,1-.37-1.88A4.9,4.9,0,0,1,112,13.79a4.46,4.46,0,0,1,1.48-1,4.41,4.41,0,0,1,1.81-.37,4.57,4.57,0,0,1,3.28,1.39A4.9,4.9,0,0,1,120,17.2Zm-2.17,0a2.92,2.92,0,0,0-.2-1.08,2.59,2.59,0,0,0-.53-.86,2.43,2.43,0,0,0-.78-.56,2.4,2.4,0,0,0-1.92,0,2.58,2.58,0,0,0-.79.56,2.77,2.77,0,0,0-.53.86,2.92,2.92,0,0,0-.2,1.08,2.87,2.87,0,0,0,.2,1.07,2.77,2.77,0,0,0,.53.86,2.42,2.42,0,0,0,.79.56,2.4,2.4,0,0,0,1.92,0,2.29,2.29,0,0,0,.78-.56,2.59,2.59,0,0,0,.53-.86A2.87,2.87,0,0,0,117.79,17.2Z"/><path class="b" d="M127.91,21.92h-6.6V12.48h2.17v7.34h3.38V12.48H129v7.34h1.05v3.9h-2.17Z"/><path class="b" d="M133.38,12.48V18.1l3.82-5.62h1.94v9.44H137V16.3l-3.82,5.62h-2V12.48Z"/><path class="b" d="M142.82,20.12l-.6,1.8H140l3.37-9.44h2.25L149,21.92h-2.25l-.6-1.8Zm2.69-1.88-1-3.14-1.05,3.14Z"/><path class="b" d="M156.38,21.92h-6.59V12.48H152v7.34h3.37V12.48h2.17v7.34h1.05v3.9h-2.17Z"/><path class="b" d="M161.85,12.48V18.1l3.82-5.62h2v9.44h-2.17V16.3l-3.82,5.62h-1.95V12.48Z"/><path class="b" d="M176.24,12.48v9.44h-2.18V18.77h-1.12l-1.8,3.15h-2.4l2.18-3.68a3.56,3.56,0,0,1-.87-.59,3.69,3.69,0,0,1-.59-.86,3.14,3.14,0,0,1,0-2.48,2.91,2.91,0,0,1,.68-1,3.22,3.22,0,0,1,1-.65,3.8,3.8,0,0,1,1.34-.23Zm-2.18,4.19v-2.1h-1.57a1.22,1.22,0,0,0-.88.3,1,1,0,0,0,0,1.5,1.22,1.22,0,0,0,.88.3Z"/><path class="b" d="M90.66,25.89v9.44H88.49V28H85.94l-.37,4.49a3.45,3.45,0,0,1-.86,2.17,2.55,2.55,0,0,1-1.91.75h-.35l-.28,0-.27,0V33.46h.3a1.15,1.15,0,0,0,.86-.38,1.73,1.73,0,0,0,.41-1L84,25.89Z"/><path class="b" d="M94.64,25.89v5.62l3.82-5.62h1.94v9.44H98.23V29.71l-3.82,5.62h-2V25.89Z"/><path class="b" d="M108.8,35.33h-6.6V25.89h2.18v7.34h3.37V25.89h2.17v7.34h1v3.9H108.8Z"/><path class="b" d="M112.09,25.89h6.75V28h-4.57v1.49h4.19v2.1h-4.19v1.65H119v2.1h-6.9Z"/><path class="b" d="M122.66,25.89v5.62l3.82-5.62h2v9.44h-2.17V29.71l-3.82,5.62h-2V25.89Z"/><path class="b" d="M134.43,33.31a2.18,2.18,0,0,0,1.41-.43,2,2,0,0,0,.68-1l2.25.15a4.54,4.54,0,0,1-.54,1.29,4.15,4.15,0,0,1-.93,1.07,4.47,4.47,0,0,1-1.28.74,4.77,4.77,0,0,1-3.4-.09,4.66,4.66,0,0,1-1.48-1,4.87,4.87,0,0,1-1-1.52,5,5,0,0,1,1-5.3,4.66,4.66,0,0,1,1.48-1,4.58,4.58,0,0,1,1.81-.37,4.35,4.35,0,0,1,3.73,2.09,4.54,4.54,0,0,1,.54,1.29l-2.25.14a2.37,2.37,0,0,0-.26-.53,1.79,1.79,0,0,0-.42-.45,2.08,2.08,0,0,0-.59-.32,2.23,2.23,0,0,0-.75-.12,2.39,2.39,0,0,0-1,.2,2.5,2.5,0,0,0-.79.57,2.55,2.55,0,0,0-.53.85,3,3,0,0,0,0,2.16,2.55,2.55,0,0,0,.53.85,2.32,2.32,0,0,0,.79.56A2.24,2.24,0,0,0,134.43,33.31Z"/><path class="b" d="M144.09,35.33h-2.17V28h-2.7v-2.1h7.57V28h-2.7Z"/><path class="b" d="M156.68,30.61a4.72,4.72,0,0,1-.37,1.89,4.87,4.87,0,0,1-1,1.52,4.77,4.77,0,0,1-1.48,1,4.57,4.57,0,0,1-1.81.36,4.52,4.52,0,0,1-1.8-.36,4.66,4.66,0,0,1-1.48-1,4.87,4.87,0,0,1-1-1.52,5,5,0,0,1,1-5.3,4.66,4.66,0,0,1,1.48-1,4.53,4.53,0,0,1,1.8-.37,4.58,4.58,0,0,1,1.81.37,4.77,4.77,0,0,1,1.48,1,4.95,4.95,0,0,1,1.36,3.41Zm-2.17,0a2.92,2.92,0,0,0-.2-1.08,2.55,2.55,0,0,0-.53-.85,2.61,2.61,0,0,0-.79-.57,2.39,2.39,0,0,0-1-.2,2.34,2.34,0,0,0-.95.2,2.5,2.5,0,0,0-.79.57,2.55,2.55,0,0,0-.53.85,3,3,0,0,0,0,2.16,2.55,2.55,0,0,0,.53.85,2.32,2.32,0,0,0,.79.56,2.2,2.2,0,0,0,.95.21,2.24,2.24,0,0,0,1-.21,2.42,2.42,0,0,0,.79-.56,2.55,2.55,0,0,0,.53-.85A2.92,2.92,0,0,0,154.51,30.61Z"/><path class="b" d="M163.87,30.31a2.76,2.76,0,0,1,.75.51,3,3,0,0,1,.52.69,2.2,2.2,0,0,1,.23,1.05,2.6,2.6,0,0,1-.22,1.07,2.77,2.77,0,0,1-.64.88,3.38,3.38,0,0,1-1,.6,3.55,3.55,0,0,1-1.24.22H158V25.89h4a3.27,3.27,0,0,1,1.19.21,2.76,2.76,0,0,1,.92.57,2.6,2.6,0,0,1,.6.83,2.29,2.29,0,0,1,.22,1,1.71,1.71,0,0,1-.18.82,2.29,2.29,0,0,1-.39.56A2.49,2.49,0,0,1,163.87,30.31Zm-3.67-.68h1.65a1,1,0,0,0,.75-.29.92.92,0,0,0,0-1.36,1,1,0,0,0-.75-.29H160.2Zm1.87,3.9a1.17,1.17,0,0,0,.86-.34,1,1,0,0,0,.34-.78,1.08,1.08,0,0,0-.34-.79,1.21,1.21,0,0,0-.86-.34H160.2v2.25Z"/><path class="b" d="M84.3,51.89H83.1V42.45h1.2Z"/><path class="b" d="M92.61,43.5H89.76v8.39h-1.2V43.5H85.72v-1h6.89Z"/><path class="b" d="M97.48,48.52H93.36v-1h4.12Z"/><path class="b" d="M104.22,45.15v6.74h-1.13V46.13h-2.47l-.22,3.59a2.59,2.59,0,0,1-.63,1.66,1.83,1.83,0,0,1-1.4.59H98.2l-.15,0-.13,0v-1h.15q1.09,0,1.2-1.2l.37-4.57Z"/><path class="b" d="M111.85,45.15v6.74h-1.11v-5l-3.45,5h-1.13V45.15h1.13v5l3.45-5Z"/><path class="b" d="M120.25,50.85v2.69h-1.06V51.89H113.8V45.15h1.13v5.7h3.29v-5.7h1.13v5.7Z"/><path class="b" d="M127,50.09a4,4,0,0,1-.43.7,2.84,2.84,0,0,1-.6.6,3.16,3.16,0,0,1-.77.42,2.7,2.7,0,0,1-1,.16,3.05,3.05,0,0,1-1.23-.26,3.09,3.09,0,0,1-1-.71,3.48,3.48,0,0,1-.68-1.08,3.52,3.52,0,0,1-.24-1.4,3.86,3.86,0,0,1,.24-1.39A3.63,3.63,0,0,1,122,46a3.12,3.12,0,0,1,1-.71,2.86,2.86,0,0,1,2.34,0,2.91,2.91,0,0,1,1,.68,3.35,3.35,0,0,1,.64,1.07,3.86,3.86,0,0,1,.25,1.39,1.81,1.81,0,0,1,0,.25l0,.18,0,.17h-4.79a1.85,1.85,0,0,0,.2.7,2.18,2.18,0,0,0,.43.6,2.11,2.11,0,0,0,.61.41,1.79,1.79,0,0,0,.71.16,1.69,1.69,0,0,0,.56-.09,2.56,2.56,0,0,0,.44-.21,1.6,1.6,0,0,0,.34-.26l.23-.27Zm-2.85-4a1.51,1.51,0,0,0-.66.14,1.94,1.94,0,0,0-.55.4,2.46,2.46,0,0,0-.66,1.4h3.66a2.36,2.36,0,0,0-.62-1.42A1.55,1.55,0,0,0,124.14,46.13Z"/><path class="b" d="M131,49.49l-1.51,2.4h-1.27l1.58-2.54a1.71,1.71,0,0,1-.68-.39,2.24,2.24,0,0,1-.47-.62,2.15,2.15,0,0,1-.21-1,2.12,2.12,0,0,1,.62-1.57,2.38,2.38,0,0,1,1.71-.6h2.84v6.74h-1.12v-2.4Zm-.23-3.29a1.17,1.17,0,0,0-.86.34,1,1,0,0,0-.34.78,1.08,1.08,0,0,0,.34.79,1.21,1.21,0,0,0,.86.34h1.72V46.2Z"/><path class="b" d="M140.17,51.89H139V42.45h1.2Zm0-4.79,3.66-4.65h1.43l-3.75,4.65,4.05,4.79h-1.43Z"/><path class="b" d="M146.08,47a3.45,3.45,0,0,1,.28-1.41,3.19,3.19,0,0,1,.81-1.13,4.11,4.11,0,0,1,1.31-.78,6.32,6.32,0,0,1,1.79-.35v-.9h1.2v.9a6.32,6.32,0,0,1,1.79.35,4,4,0,0,1,1.32.78,3.35,3.35,0,0,1,.82,1.13,3.82,3.82,0,0,1,0,2.82,3.25,3.25,0,0,1-.82,1.13,3.73,3.73,0,0,1-1.32.78,6,6,0,0,1-1.79.35V52h-1.2V50.69a6,6,0,0,1-1.79-.35,3.77,3.77,0,0,1-1.31-.78,3.1,3.1,0,0,1-.81-1.13A3.45,3.45,0,0,1,146.08,47Zm4.19-2.62a4,4,0,0,0-1.25.24,3,3,0,0,0-1,.56,2.49,2.49,0,0,0-.59.82,2.55,2.55,0,0,0-.2,1,2.51,2.51,0,0,0,.2,1,2.39,2.39,0,0,0,.59.82,3.18,3.18,0,0,0,1,.56,3.75,3.75,0,0,0,1.25.25Zm1.2,5.25a3.76,3.76,0,0,0,1.26-.25,3.06,3.06,0,0,0,1-.56,2.26,2.26,0,0,0,.59-.82,2.47,2.47,0,0,0-.59-2.82,2.88,2.88,0,0,0-1-.56,4,4,0,0,0-1.26-.24Z"/><path class="b" d="M163.76,42.45l-3.3,7.5a5.39,5.39,0,0,1-1,1.58,1.73,1.73,0,0,1-1.26.51,2.36,2.36,0,0,1-.55-.07l-.27-.08v-1l.15,0,.16,0h.21a1.12,1.12,0,0,0,.76-.27,2,2,0,0,0,.52-.77l.3-.68-3.08-6.82h1.36l2.39,5.4,2.33-5.4Z"/><rect class="b" x="199.37" y="0.83" width="0.71" height="65.11"/><path class="b" d="M233.11,10.84h1.15V21.91h-1.41V14.44l-3.43,7.47h-.88l-3.42-7.47v7.47h-1.41V10.84h1.14L229,19.71Z"/><path class="b" d="M243.47,14v7.91h-1.32V16l-4,5.89h-1.33V14h1.33v5.88l4-5.88Z"/><path class="b" d="M252.42,14v7.91h-1.31V18.48h-4v3.43h-1.32V14h1.32v3.25h4V14Z"/><path class="b" d="M261.38,14v7.91h-1.32V16l-4,5.89H254.7V14H256v5.88l4-5.88Z"/><path class="b" d="M266.82,15.15a2.16,2.16,0,0,0-.89.19,2.37,2.37,0,0,0-.76.58,2.59,2.59,0,0,0-.53.88,3.27,3.27,0,0,0-.19,1.15,3.19,3.19,0,0,0,.19,1.15,3.14,3.14,0,0,0,.53.89,2.21,2.21,0,0,0,.76.57,2,2,0,0,0,.89.21,1.8,1.8,0,0,0,.73-.15,2.21,2.21,0,0,0,.61-.37,2.57,2.57,0,0,0,.47-.52,2.5,2.5,0,0,0,.3-.64h1.31a4.06,4.06,0,0,1-.43,1.13,3.88,3.88,0,0,1-.75.92,3.56,3.56,0,0,1-1,.63,3.11,3.11,0,0,1-1.22.22,3.49,3.49,0,0,1-1.43-.3,3.61,3.61,0,0,1-1.17-.83,3.92,3.92,0,0,1-.8-1.27,4.31,4.31,0,0,1-.29-1.64,4.5,4.5,0,0,1,.29-1.63,3.91,3.91,0,0,1,.8-1.28,3.61,3.61,0,0,1,1.17-.83,3.49,3.49,0,0,1,1.43-.3,3.27,3.27,0,0,1,1.22.23,3.76,3.76,0,0,1,1,.62,3.41,3.41,0,0,1,.75.93,4,4,0,0,1,.43,1.12h-1.31a2.6,2.6,0,0,0-.3-.63,2.38,2.38,0,0,0-.47-.53,2.68,2.68,0,0,0-.61-.37A2,2,0,0,0,266.82,15.15Z"/><path class="b" d="M271,14h6.24v1.23h-2.46v6.68h-1.32V15.23H271Z"/><path class="b" d="M285.08,19.8a4.67,4.67,0,0,1-.49.82,3.37,3.37,0,0,1-.71.7,3.45,3.45,0,0,1-.91.49,2.91,2.91,0,0,1-1.14.18,3.49,3.49,0,0,1-1.43-.3,3.77,3.77,0,0,1-1.18-.83,4.08,4.08,0,0,1-.79-1.27,4.31,4.31,0,0,1-.29-1.64,4.5,4.5,0,0,1,.29-1.63,4.06,4.06,0,0,1,.79-1.28,3.53,3.53,0,0,1,1.15-.83,3.3,3.3,0,0,1,1.38-.3A3.34,3.34,0,0,1,284.22,15a4.08,4.08,0,0,1,.75,1.25,4.46,4.46,0,0,1,.28,1.63,2.81,2.81,0,0,1,0,.3c0,.08,0,.14,0,.2l0,.2h-5.62a2.25,2.25,0,0,0,.23.82,2.66,2.66,0,0,0,.52.71,2.34,2.34,0,0,0,.71.48,2,2,0,0,0,.82.19,1.9,1.9,0,0,0,.66-.11,2.6,2.6,0,0,0,.53-.25,1.54,1.54,0,0,0,.39-.3l.27-.31Zm-3.33-4.65a1.77,1.77,0,0,0-.78.17,2.24,2.24,0,0,0-.65.47,2.5,2.5,0,0,0-.5.72,2.8,2.8,0,0,0-.27.92h4.3a2.9,2.9,0,0,0-.73-1.67A1.83,1.83,0,0,0,281.75,15.15Z"/><path class="b" d="M288.33,14.88a2.54,2.54,0,0,1,.59-.47,2.91,2.91,0,0,1,.73-.34,3.55,3.55,0,0,1,1-.16,3.46,3.46,0,0,1,1.43.3,3.55,3.55,0,0,1,1.18.83,4.13,4.13,0,0,1,.79,1.28,4.5,4.5,0,0,1,.29,1.63,4.56,4.56,0,0,1-.29,1.64,4.08,4.08,0,0,1-.79,1.27,3.55,3.55,0,0,1-1.18.83,3.46,3.46,0,0,1-1.43.3,3,3,0,0,1-1-.16,3.82,3.82,0,0,1-.73-.36,2.53,2.53,0,0,1-.59-.53v3.78H287V14h1ZM288.14,18a3,3,0,0,0,.21,1.15,3.39,3.39,0,0,0,.53.89,2.38,2.38,0,0,0,.78.57,2.23,2.23,0,0,0,1.89,0,2.46,2.46,0,0,0,.78-.57,2.7,2.7,0,0,0,.53-.89,3,3,0,0,0,.21-1.15,3.06,3.06,0,0,0-.21-1.15,3,3,0,0,0-.53-.88,2.34,2.34,0,0,0-.78-.58,2.17,2.17,0,0,0-.94-.19,2.41,2.41,0,0,0-.95.19,2.56,2.56,0,0,0-.78.58,2.76,2.76,0,0,0-.53.88A3.06,3.06,0,0,0,288.14,18Z"/><path class="b" d="M299.29,15.15a2.16,2.16,0,0,0-.89.19,2.48,2.48,0,0,0-.76.58,2.57,2.57,0,0,0-.52.88,3.05,3.05,0,0,0-.2,1.15,3,3,0,0,0,.2,1.15,2.9,2.9,0,0,0,.52.89,2.3,2.3,0,0,0,.76.57,2,2,0,0,0,.89.21,1.8,1.8,0,0,0,.73-.15,2.07,2.07,0,0,0,.61-.37,2.57,2.57,0,0,0,.47-.52,2,2,0,0,0,.3-.64h1.32a4.09,4.09,0,0,1-.44,1.13,3.88,3.88,0,0,1-.75.92,3.43,3.43,0,0,1-1,.63,3.11,3.11,0,0,1-1.22.22,3.49,3.49,0,0,1-1.43-.3,3.61,3.61,0,0,1-1.17-.83,3.92,3.92,0,0,1-.8-1.27,4.13,4.13,0,0,1-.28-1.64,4.5,4.5,0,0,1,.28-1.63,3.91,3.91,0,0,1,.8-1.28,3.61,3.61,0,0,1,1.17-.83,3.49,3.49,0,0,1,1.43-.3,3.23,3.23,0,0,1,1.22.23,3.62,3.62,0,0,1,1,.62,3.41,3.41,0,0,1,.75.93,4,4,0,0,1,.44,1.12H301.4a2,2,0,0,0-.3-.63,2.38,2.38,0,0,0-.47-.53,2.48,2.48,0,0,0-.61-.37A2,2,0,0,0,299.29,15.15Z"/><path class="b" d="M303.51,14h6.23v1.23h-2.46v6.68H306V15.23h-2.45Z"/><path class="b" d="M316,17.78a2.73,2.73,0,0,1,.62.4,2.41,2.41,0,0,1,.42.57,1.75,1.75,0,0,1,.19.87,2.23,2.23,0,0,1-.64,1.65,2.27,2.27,0,0,1-1.65.64h-3.77V14h3.52a2.25,2.25,0,0,1,.9.17,2.11,2.11,0,0,1,.73.46,2.31,2.31,0,0,1,.47.71,2.06,2.06,0,0,1,.18.85,1.58,1.58,0,0,1-.15.73,2.11,2.11,0,0,1-.34.49A2.8,2.8,0,0,1,316,17.78Zm-3.51-2.55v2h2a1.19,1.19,0,0,0,.83-.28.91.91,0,0,0,.31-.68,1,1,0,0,0-.31-.76,1.13,1.13,0,0,0-.83-.3Zm2.28,5.45a1.14,1.14,0,0,0,.8-.34,1.07,1.07,0,0,0,.26-1.19,1,1,0,0,0-.25-.34,1.18,1.18,0,0,0-.37-.24,1.08,1.08,0,0,0-.44-.09h-2.28v2.2Z"/><path class="b" d="M325.89,18a4.56,4.56,0,0,1-.29,1.64,3.9,3.9,0,0,1-.79,1.27,3.61,3.61,0,0,1-1.17.83,3.54,3.54,0,0,1-1.44.3,3.49,3.49,0,0,1-1.43-.3,3.61,3.61,0,0,1-1.17-.83,3.92,3.92,0,0,1-.8-1.27,4.31,4.31,0,0,1-.29-1.64,4.5,4.5,0,0,1,.29-1.63,3.91,3.91,0,0,1,.8-1.28,3.61,3.61,0,0,1,1.17-.83,3.49,3.49,0,0,1,1.43-.3,3.54,3.54,0,0,1,1.44.3,3.61,3.61,0,0,1,1.17.83,4,4,0,0,1,.79,1.28A4.5,4.5,0,0,1,325.89,18Zm-6.06,0A3.19,3.19,0,0,0,320,19.1a3.14,3.14,0,0,0,.53.89,2.3,2.3,0,0,0,.76.57,2,2,0,0,0,1.78,0,2.57,2.57,0,0,0,.75-.57,2.7,2.7,0,0,0,.53-.89,2.81,2.81,0,0,0,.2-1.15,3.05,3.05,0,0,0-.2-1.15,2.76,2.76,0,0,0-.53-.88,2.44,2.44,0,0,0-.75-.58,2,2,0,0,0-.89-.19,2.16,2.16,0,0,0-.89.19,2.48,2.48,0,0,0-.76.58,2.76,2.76,0,0,0-.53.88A3.27,3.27,0,0,0,319.83,18Z"/><path class="b" d="M226.61,30.87a2.16,2.16,0,0,0-.89.19,2.48,2.48,0,0,0-.76.58,2.87,2.87,0,0,0-.53.88,3.27,3.27,0,0,0-.19,1.15,3.19,3.19,0,0,0,.19,1.15,3.14,3.14,0,0,0,.53.89,2.3,2.3,0,0,0,.76.57,2,2,0,0,0,.89.21,1.8,1.8,0,0,0,.73-.15A2,2,0,0,0,228,36a2.57,2.57,0,0,0,.47-.52,2.5,2.5,0,0,0,.3-.64H230a4.42,4.42,0,0,1-.44,1.13,3.69,3.69,0,0,1-.75.92,3.56,3.56,0,0,1-1,.63,3.11,3.11,0,0,1-1.22.22,3.55,3.55,0,0,1-2.6-1.13,3.92,3.92,0,0,1-.8-1.27,4.13,4.13,0,0,1-.28-1.64,4.5,4.5,0,0,1,.28-1.63,3.86,3.86,0,0,1,.8-1.27,3.51,3.51,0,0,1,2.6-1.14,3.27,3.27,0,0,1,1.22.23,3.76,3.76,0,0,1,1,.62,3.41,3.41,0,0,1,.75.93,4.36,4.36,0,0,1,.44,1.12h-1.32a2.6,2.6,0,0,0-.3-.63,2.38,2.38,0,0,0-.47-.53,2.18,2.18,0,0,0-.61-.36A1.79,1.79,0,0,0,226.61,30.87Z"/><path class="b" d="M238.37,29.72v7.91h-1.31V31h-4v6.68H231.7V29.72Z"/><path class="b" d="M247.51,33.67a4.56,4.56,0,0,1-.29,1.64,4.08,4.08,0,0,1-.79,1.27,3.61,3.61,0,0,1-1.18.83,3.56,3.56,0,0,1-2.86,0,3.41,3.41,0,0,1-1.18-.83,4.1,4.1,0,0,1-.8-1.27,4.31,4.31,0,0,1-.28-1.64,4.5,4.5,0,0,1,.28-1.63,4,4,0,0,1,.8-1.27,3.44,3.44,0,0,1,1.18-.84,3.56,3.56,0,0,1,2.86,0,3.64,3.64,0,0,1,1.18.84,4.08,4.08,0,0,1,.79,1.27A4.5,4.5,0,0,1,247.51,33.67Zm-6.07,0a3.19,3.19,0,0,0,.2,1.15,3.11,3.11,0,0,0,.52.89,2.34,2.34,0,0,0,.77.57,2,2,0,0,0,1.77,0,2.49,2.49,0,0,0,.76-.57,3.09,3.09,0,0,0,.53-.89,3,3,0,0,0,.2-1.15,3.27,3.27,0,0,0-.2-1.15,3.32,3.32,0,0,0-.53-.88,2.37,2.37,0,0,0-.76-.58,1.94,1.94,0,0,0-.88-.19,2.16,2.16,0,0,0-.89.19,2.52,2.52,0,0,0-.77.58,2.85,2.85,0,0,0-.52.88A3.27,3.27,0,0,0,241.44,33.67Z"/><path class="b" d="M250.58,30.6a2.54,2.54,0,0,1,.59-.47,2.83,2.83,0,0,1,.74-.34,3.43,3.43,0,0,1,1-.16,3.51,3.51,0,0,1,2.61,1.14,3.9,3.9,0,0,1,.79,1.27,4.3,4.3,0,0,1,.29,1.63,4.35,4.35,0,0,1-.29,1.64,3.9,3.9,0,0,1-.79,1.27,3.47,3.47,0,0,1-1.17.83,3.51,3.51,0,0,1-1.44.3,2.9,2.9,0,0,1-1-.16,3.65,3.65,0,0,1-.74-.36,2.53,2.53,0,0,1-.59-.53v3.78h-1.32V29.72h1Zm-.18,3.07a3,3,0,0,0,.74,2,2.19,2.19,0,0,0,.78.57,2.15,2.15,0,0,0,.94.21,2.22,2.22,0,0,0,.94-.21,2.46,2.46,0,0,0,.78-.57,2.54,2.54,0,0,0,.53-.89,3,3,0,0,0,.21-1.15,3.06,3.06,0,0,0-.21-1.15,2.87,2.87,0,0,0-.53-.88,2.34,2.34,0,0,0-.78-.58,2.17,2.17,0,0,0-.94-.19,2.21,2.21,0,0,0-1.72.77,2.71,2.71,0,0,0-.54.88A3.27,3.27,0,0,0,250.4,33.67Z"/><path class="b" d="M257.51,29.72h6.23V31h-2.46v6.68H260V31h-2.45Z"/><path class="b" d="M268.13,29.63a3.26,3.26,0,0,1,1.21.23,2.87,2.87,0,0,1,.94.58,2.71,2.71,0,0,1,.62.87,2.3,2.3,0,0,1,.21,1.05v5.27h-1l-.35-.88a3.14,3.14,0,0,1-.6.49,3,3,0,0,1-.74.33,3.23,3.23,0,0,1-1,.14,3.06,3.06,0,0,1-1.08-.18,2.53,2.53,0,0,1-.82-.51,2.22,2.22,0,0,1-.53-.76,2,2,0,0,1-.2-.91,2.29,2.29,0,0,1,.23-1,2.1,2.1,0,0,1,.79-.81,4.62,4.62,0,0,1,1.53-.53,12.3,12.3,0,0,1,2.46-.18v-.44a1.45,1.45,0,0,0-.46-1.05,1.71,1.71,0,0,0-1.21-.44,1.63,1.63,0,0,0-1.09.3,1.54,1.54,0,0,0-.49.84h-1.41a3,3,0,0,1,.3-.93,2.75,2.75,0,0,1,.61-.75,2.69,2.69,0,0,1,.89-.51A3.62,3.62,0,0,1,268.13,29.63Zm-.71,6.86a2.58,2.58,0,0,0,1-.18,2.48,2.48,0,0,0,.75-.42,2.39,2.39,0,0,0,.48-.59,1.63,1.63,0,0,0,.18-.66V34a15.68,15.68,0,0,0-1.91.1,3.94,3.94,0,0,0-1.12.28,1.15,1.15,0,0,0-.53.44,1.25,1.25,0,0,0-.13.59,1,1,0,0,0,.36.73A1.32,1.32,0,0,0,267.42,36.49Z"/><path class="b" d="M273.66,37.71a.9.9,0,0,1-.64-.23.86.86,0,0,1-.24-.64.88.88,0,0,1,.24-.65,1,1,0,0,1,1.28,0,.92.92,0,0,1,.23.65,2.51,2.51,0,0,1-.22,1.1,3.41,3.41,0,0,1-.47.76,3.7,3.7,0,0,1-.71.6L273,39a2.3,2.3,0,0,0,.32-.37,3,3,0,0,0,.24-.41A1.54,1.54,0,0,0,273.66,37.71Z"/><path class="b" d="M281.39,37.63h-1.33V29.72h1.33Zm3.33,0-3.33-4.13,3-3.78h1.49l-3,3.69,3.42,4.22Z"/><path class="b" d="M294,29.72v7.91h-1.31V31.74l-4,5.89h-1.32V29.72h1.32V35.6l4-5.88Z"/><path class="b" d="M297.18,31.31a3.68,3.68,0,0,1,.65-.66,4.23,4.23,0,0,1,.83-.46,2.9,2.9,0,0,1,1.16-.21,3.07,3.07,0,0,1,1.32.3,3.81,3.81,0,0,1,1.13.82,4.14,4.14,0,0,1,.77,1.22,4,4,0,0,1,.29,1.53,4.25,4.25,0,0,1-.28,1.53,3.73,3.73,0,0,1-.77,1.22,3.46,3.46,0,0,1-1.14.82,3.5,3.5,0,0,1-1.42.29,3.36,3.36,0,0,1-1.43-.32,3.54,3.54,0,0,1-1.2-1,4.63,4.63,0,0,1-.83-1.54,6.44,6.44,0,0,1-.31-2.1,10.89,10.89,0,0,1,.33-2.89A4.19,4.19,0,0,1,297.35,28a4.56,4.56,0,0,1,2-1.12,14.46,14.46,0,0,1,3.05-.48v1.24a12,12,0,0,0-2.38.31,4.31,4.31,0,0,0-1.54.7,3,3,0,0,0-.88,1.12A5.56,5.56,0,0,0,297.18,31.31Zm2.54,5.18a2,2,0,0,0,.87-.2,2.29,2.29,0,0,0,.74-.53,2.56,2.56,0,0,0,.5-.83,3.33,3.33,0,0,0,0-2.16,2.45,2.45,0,0,0-.5-.83,2.53,2.53,0,0,0-.73-.53,2.06,2.06,0,0,0-.88-.2,2,2,0,0,0-.88.21,2.43,2.43,0,0,0-.76.55,2.61,2.61,0,0,0-.53.84,3,3,0,0,0,0,2.09,2.46,2.46,0,0,0,.53.83,2.28,2.28,0,0,0,.76.55A2,2,0,0,0,299.72,36.49Z"/><path class="b" d="M311.5,35.52a4.74,4.74,0,0,1-.5.82,3.32,3.32,0,0,1-.7.7,3.45,3.45,0,0,1-.91.49,3,3,0,0,1-1.14.18,3.6,3.6,0,0,1-2.61-1.13,4.1,4.1,0,0,1-.8-1.27,4.31,4.31,0,0,1-.28-1.64,4.72,4.72,0,0,1,.28-1.63,4.2,4.2,0,0,1,.79-1.27,3.52,3.52,0,0,1,1.15-.84,3.33,3.33,0,0,1,2.74,0,3.13,3.13,0,0,1,1.11.79,3.85,3.85,0,0,1,.76,1.26,4.37,4.37,0,0,1,.28,1.62,1.42,1.42,0,0,1,0,.3c0,.08,0,.15,0,.2l0,.2H306a2.25,2.25,0,0,0,.23.82,2.86,2.86,0,0,0,.51.71,2.52,2.52,0,0,0,.72.48,2,2,0,0,0,.82.19,1.9,1.9,0,0,0,.66-.11,2.51,2.51,0,0,0,.52-.25,1.82,1.82,0,0,0,.4-.3l.26-.31Zm-3.34-4.65a1.88,1.88,0,0,0-.77.17,2.12,2.12,0,0,0-.65.47,2.74,2.74,0,0,0-.51.72,3.06,3.06,0,0,0-.26.92h4.29a2.89,2.89,0,0,0-.72-1.67A1.84,1.84,0,0,0,308.16,30.87Z"/><path class="b" d="M314.74,30.6a2.77,2.77,0,0,1,.59-.47,3,3,0,0,1,.74-.34,3.52,3.52,0,0,1,2.47.14,3.64,3.64,0,0,1,1.18.84,4.08,4.08,0,0,1,.79,1.27,4.5,4.5,0,0,1,.29,1.63,4.56,4.56,0,0,1-.29,1.64,4.08,4.08,0,0,1-.79,1.27,3.61,3.61,0,0,1-1.18.83,3.49,3.49,0,0,1-1.43.3,3,3,0,0,1-1-.16,3.93,3.93,0,0,1-.74-.36,2.75,2.75,0,0,1-.59-.53v3.78h-1.32V29.72h1Zm-.18,3.07a3,3,0,0,0,.21,1.15,2.92,2.92,0,0,0,.53.89,2.36,2.36,0,0,0,1.72.78,2.26,2.26,0,0,0,1-.21,2.5,2.5,0,0,0,1.31-1.46,3,3,0,0,0,.2-1.15,3.05,3.05,0,0,0-.2-1.15,3.32,3.32,0,0,0-.53-.88,2.56,2.56,0,0,0-.78-.58,2.21,2.21,0,0,0-1-.19,2.21,2.21,0,0,0-1.72.77,2.87,2.87,0,0,0-.53.88A3.06,3.06,0,0,0,314.56,33.67Z"/><path class="b" d="M325.71,30.87a2.16,2.16,0,0,0-.89.19,2.37,2.37,0,0,0-.76.58,2.69,2.69,0,0,0-.53.88,3.27,3.27,0,0,0-.19,1.15,3.19,3.19,0,0,0,.19,1.15,2.92,2.92,0,0,0,.53.89,2.21,2.21,0,0,0,.76.57,2,2,0,0,0,.89.21,1.8,1.8,0,0,0,.73-.15,2,2,0,0,0,.61-.37,2.57,2.57,0,0,0,.47-.52,2.5,2.5,0,0,0,.3-.64h1.31a4.06,4.06,0,0,1-.43,1.13,3.69,3.69,0,0,1-.75.92,3.56,3.56,0,0,1-1,.63,3.11,3.11,0,0,1-1.22.22,3.49,3.49,0,0,1-1.43-.3,3.61,3.61,0,0,1-1.18-.83,4.08,4.08,0,0,1-.79-1.27,4.31,4.31,0,0,1-.29-1.64,4.5,4.5,0,0,1,.29-1.63,4,4,0,0,1,.79-1.27,3.64,3.64,0,0,1,1.18-.84,3.49,3.49,0,0,1,1.43-.3,3.27,3.27,0,0,1,1.22.23,3.76,3.76,0,0,1,1,.62,3.41,3.41,0,0,1,.75.93,4,4,0,0,1,.43,1.12h-1.31a2.6,2.6,0,0,0-.3-.63,2.38,2.38,0,0,0-.47-.53,2.34,2.34,0,0,0-.61-.36A1.79,1.79,0,0,0,325.71,30.87Z"/><path class="b" d="M337.47,29.72v7.91h-1.31V31h-4v6.68H330.8V29.72Z"/><path class="b" d="M346.61,33.67a4.35,4.35,0,0,1-.3,1.64,3.74,3.74,0,0,1-.79,1.27,3.55,3.55,0,0,1-2.6,1.13,3.54,3.54,0,0,1-1.44-.3,3.47,3.47,0,0,1-1.17-.83,4.1,4.1,0,0,1-.8-1.27,4.31,4.31,0,0,1-.28-1.64,4.5,4.5,0,0,1,.28-1.63,4,4,0,0,1,.8-1.27,3.5,3.5,0,0,1,1.17-.84,3.54,3.54,0,0,1,1.44-.3,3.51,3.51,0,0,1,2.6,1.14,3.74,3.74,0,0,1,.79,1.27A4.3,4.3,0,0,1,346.61,33.67Zm-6.07,0a3.19,3.19,0,0,0,.2,1.15,2.9,2.9,0,0,0,.52.89,2.24,2.24,0,0,0,.77.57,2,2,0,0,0,.89.21,2,2,0,0,0,.88-.21,2.33,2.33,0,0,0,.75-.57,2.9,2.9,0,0,0,.54-.89,3,3,0,0,0,.19-1.15,3.27,3.27,0,0,0-.19-1.15,3.1,3.1,0,0,0-.54-.88,2.23,2.23,0,0,0-.75-.58,2,2,0,0,0-.88-.19,2.13,2.13,0,0,0-.89.19,2.41,2.41,0,0,0-.77.58,2.66,2.66,0,0,0-.52.88A3.27,3.27,0,0,0,340.54,33.67Z"/><path class="b" d="M349.68,30.6a2.54,2.54,0,0,1,.59-.47,2.83,2.83,0,0,1,.74-.34,3.54,3.54,0,0,1,3.64,1,3.9,3.9,0,0,1,.79,1.27,4.5,4.5,0,0,1,.29,1.63,4.56,4.56,0,0,1-.29,1.64,3.9,3.9,0,0,1-.79,1.27,3.41,3.41,0,0,1-1.18.83,3.46,3.46,0,0,1-1.43.3,2.9,2.9,0,0,1-1-.16,3.65,3.65,0,0,1-.74-.36,2.53,2.53,0,0,1-.59-.53v3.78h-1.33V29.72h1Zm-.18,3.07a3,3,0,0,0,.2,1.15,3.39,3.39,0,0,0,.53.89,2.38,2.38,0,0,0,.78.57,2.23,2.23,0,0,0,1.89,0,2.46,2.46,0,0,0,.78-.57,2.7,2.7,0,0,0,.53-.89,3,3,0,0,0,.21-1.15,3.06,3.06,0,0,0-.21-1.15,2.87,2.87,0,0,0-.53-.88,2.34,2.34,0,0,0-.78-.58,2.17,2.17,0,0,0-.94-.19,2.41,2.41,0,0,0-.95.19,2.56,2.56,0,0,0-.78.58,2.87,2.87,0,0,0-.53.88A3.05,3.05,0,0,0,349.5,33.67Z"/><path class="b" d="M356.61,29.72h6.23V31h-2.46v6.68h-1.32V31h-2.45Z"/><path class="b" d="M367.22,29.63a3.18,3.18,0,0,1,1.21.23,2.92,2.92,0,0,1,.95.58,2.54,2.54,0,0,1,.61.87,2.3,2.3,0,0,1,.22,1.05v5.27h-1l-.35-.88a3.14,3.14,0,0,1-.6.49,3,3,0,0,1-.74.33,3.23,3.23,0,0,1-1,.14,3.06,3.06,0,0,1-1.08-.18,2.53,2.53,0,0,1-.82-.51,2.22,2.22,0,0,1-.53-.76,2,2,0,0,1-.2-.91,2.29,2.29,0,0,1,.23-1,2,2,0,0,1,.79-.81,4.62,4.62,0,0,1,1.53-.53,12.3,12.3,0,0,1,2.46-.18v-.44a1.42,1.42,0,0,0-.47-1.05,1.68,1.68,0,0,0-1.21-.44,1.62,1.62,0,0,0-1.08.3,1.54,1.54,0,0,0-.49.84h-1.41a3,3,0,0,1,.3-.93,2.58,2.58,0,0,1,.61-.75,2.69,2.69,0,0,1,.89-.51A3.56,3.56,0,0,1,367.22,29.63Zm-.7,6.86a2.58,2.58,0,0,0,1-.18,2.48,2.48,0,0,0,.75-.42,2.39,2.39,0,0,0,.48-.59,1.63,1.63,0,0,0,.18-.66V34a15.86,15.86,0,0,0-1.92.1,3.86,3.86,0,0,0-1.11.28,1.15,1.15,0,0,0-.53.44,1.25,1.25,0,0,0-.13.59,1,1,0,0,0,.36.73A1.32,1.32,0,0,0,366.52,36.49Z"/><path class="b" d="M372.76,37.71a.88.88,0,0,1-.64-.23.86.86,0,0,1-.24-.64.88.88,0,0,1,.24-.65.84.84,0,0,1,.64-.24.88.88,0,0,1,.64.24.92.92,0,0,1,.23.65,2.51,2.51,0,0,1-.22,1.1,3.41,3.41,0,0,1-.47.76,4,4,0,0,1-.71.6l-.18-.27a2.3,2.3,0,0,0,.32-.37,3,3,0,0,0,.24-.41A2.13,2.13,0,0,0,372.76,37.71Z"/><path class="b" d="M224.77,53.35h-1.32V45.44h1.32Zm3.34,0-3.34-4.13,3-3.78h1.5l-3,3.69,3.42,4.22Z"/><path class="b" d="M229.76,45.44h1.41l2.37,6.06,2.37-6.06h1.41l-3.42,8.61a5,5,0,0,1-1,1.7,1.78,1.78,0,0,1-1.29.5h-.19l-.17,0-.17-.05v-1a1.31,1.31,0,0,0,.9-.27,2.08,2.08,0,0,0,.51-.79l.35-.87Z"/><path class="b" d="M244.78,45.44v7.91h-1.32V46.59h-2.9l-.26,4.21a3,3,0,0,1-.73,2,2.13,2.13,0,0,1-1.64.68h-.2l-.17,0-.16,0V52.21h.18c.85,0,1.32-.47,1.4-1.41l.44-5.36Z"/><path class="b" d="M250.31,48.25a2.7,2.7,0,0,1,2,.72A2.42,2.42,0,0,1,253,50.8a2.46,2.46,0,0,1-.73,1.84,2.74,2.74,0,0,1-2,.71h-3.25V45.44h1.32v2.81Zm0,3.87a1.43,1.43,0,0,0,1-.36,1.22,1.22,0,0,0,.41-1,1.26,1.26,0,0,0-.41-.92,1.33,1.33,0,0,0-1-.4h-1.93v2.64Z"/><path class="b" d="M253.73,45.44H260v1.24h-2.46v6.67h-1.32V46.68h-2.46Z"/><path class="b" d="M260.4,45.44h1.4l2.38,6.06,2.37-6.06H268l-3.42,8.61a4.8,4.8,0,0,1-1,1.7,1.8,1.8,0,0,1-1.29.5h-.2l-.17,0-.16-.05v-1a1.31,1.31,0,0,0,.9-.27,2.08,2.08,0,0,0,.51-.79l.35-.87Z"/><path class="b" d="M270.59,46.32a2.84,2.84,0,0,1,.59-.47,3.41,3.41,0,0,1,.74-.34,3.44,3.44,0,0,1,1-.16,3.49,3.49,0,0,1,1.43.3,3.64,3.64,0,0,1,1.17.84,3.9,3.9,0,0,1,.79,1.27,4.75,4.75,0,0,1,0,3.27,3.9,3.9,0,0,1-.79,1.27,3.55,3.55,0,0,1-2.6,1.13,2.92,2.92,0,0,1-1-.16,3.93,3.93,0,0,1-.74-.36,2.51,2.51,0,0,1-.59-.53v3.78h-1.32V45.44h1Zm-.18,3.07a3,3,0,0,0,.74,2,2.29,2.29,0,0,0,.78.56,2.15,2.15,0,0,0,.94.21,2.19,2.19,0,0,0,.94-.21,2.43,2.43,0,0,0,.78-.56,2.88,2.88,0,0,0,.54-.9,3.19,3.19,0,0,0,.2-1.15,3.27,3.27,0,0,0-.2-1.15,3.1,3.1,0,0,0-.54-.88,2.31,2.31,0,0,0-.78-.57,2,2,0,0,0-.94-.2,2.3,2.3,0,0,0-1.72.77,2.89,2.89,0,0,0-.54.88A3.27,3.27,0,0,0,270.41,49.39Z"/><path class="b" d="M281.47,48.25a2.7,2.7,0,0,1,2,.72,2.42,2.42,0,0,1,.73,1.83,2.46,2.46,0,0,1-.73,1.84,2.74,2.74,0,0,1-2,.71h-3.08V45.44h1.32v2.81Zm0,3.87a1.33,1.33,0,0,0,1-.4,1.24,1.24,0,0,0,.4-.92,1.25,1.25,0,0,0-.4-.92,1.35,1.35,0,0,0-1-.4h-1.76v2.64Zm5.27-6.68v7.91h-1.32V45.44Z"/><path class="b" d="M299.47,45.44v7.91h-1.32V47.46l-4,5.89h-1.32V45.44h1.32v5.88l4-5.88Z"/><path class="b" d="M304.65,45.44h6.23v1.24h-2.46v6.67H307.1V46.68h-2.45Z"/><path class="b" d="M317.11,49.22a2.78,2.78,0,0,1,.62.41,2.34,2.34,0,0,1,.42.56,1.77,1.77,0,0,1,.19.88,2.21,2.21,0,0,1-.64,1.64,2.23,2.23,0,0,1-1.65.64h-3.77V45.44h3.52a2.49,2.49,0,0,1,.91.17,2.07,2.07,0,0,1,.72.46,2.31,2.31,0,0,1,.47.71,2.07,2.07,0,0,1,.18.86,1.54,1.54,0,0,1-.15.72,2.11,2.11,0,0,1-.34.49A1.92,1.92,0,0,1,317.11,49.22Zm-3.51-2.54v2h2a1.18,1.18,0,0,0,.83-.28.89.89,0,0,0,.31-.68,1,1,0,0,0-.31-.75,1.09,1.09,0,0,0-.83-.3Zm2.28,5.44a1.11,1.11,0,0,0,1.06-1.53,1,1,0,0,0-.25-.34,1.18,1.18,0,0,0-.37-.24,1.08,1.08,0,0,0-.44-.08H313.6v2.19Z"/><path class="b" d="M327,49.39a4.56,4.56,0,0,1-.29,1.64A3.9,3.9,0,0,1,326,52.3a3.47,3.47,0,0,1-1.17.83,3.54,3.54,0,0,1-1.44.3,3.55,3.55,0,0,1-2.6-1.13,3.92,3.92,0,0,1-.8-1.27,4.13,4.13,0,0,1-.28-1.64,4.54,4.54,0,0,1,.28-1.63,3.86,3.86,0,0,1,.8-1.27,3.64,3.64,0,0,1,1.17-.84,3.49,3.49,0,0,1,1.43-.3,3.54,3.54,0,0,1,1.44.3,3.64,3.64,0,0,1,1.17.84,3.9,3.9,0,0,1,.79,1.27A4.54,4.54,0,0,1,327,49.39Zm-6.06,0a3,3,0,0,0,.2,1.15,3,3,0,0,0,.52.9,2.42,2.42,0,0,0,.76.56,2,2,0,0,0,.89.21,2,2,0,0,0,.89-.21,2.54,2.54,0,0,0,.75-.56,2.86,2.86,0,0,0,.53-.9,2.81,2.81,0,0,0,.2-1.15,3.05,3.05,0,0,0-.2-1.15,2.87,2.87,0,0,0-.53-.88,2.41,2.41,0,0,0-.75-.57,1.87,1.87,0,0,0-.89-.2,2.17,2.17,0,0,0-.89.2,2.45,2.45,0,0,0-.76.57,2.66,2.66,0,0,0-.52.88A3.05,3.05,0,0,0,321,49.39Z"/><path class="b" d="M330.1,46.32a3.48,3.48,0,0,1,.59-.47,3.41,3.41,0,0,1,.74-.34,3.52,3.52,0,0,1,2.47.14,3.68,3.68,0,0,1,1.18.84,4.08,4.08,0,0,1,.79,1.27,4.75,4.75,0,0,1,0,3.27,4.08,4.08,0,0,1-.79,1.27,3.6,3.6,0,0,1-2.61,1.13,3,3,0,0,1-1-.16,3.93,3.93,0,0,1-.74-.36,2.51,2.51,0,0,1-.59-.53v3.78h-1.32V45.44h1Zm-.18,3.07a3,3,0,0,0,.21,1.15,3.19,3.19,0,0,0,.53.9,2.29,2.29,0,0,0,.78.56,2.19,2.19,0,0,0,.94.21,2.26,2.26,0,0,0,.95-.21,2.54,2.54,0,0,0,.78-.56,2.86,2.86,0,0,0,.53-.9,3,3,0,0,0,.21-1.15,3.05,3.05,0,0,0-.74-2,2.42,2.42,0,0,0-.78-.57,2.06,2.06,0,0,0-.95-.2,2.37,2.37,0,0,0-.94.2,2.31,2.31,0,0,0-.78.57,2.87,2.87,0,0,0-.53.88A3.06,3.06,0,0,0,329.92,49.39Z"/><path class="b" d="M344.06,45.44v7.91h-1.32v-2.9a5.63,5.63,0,0,1-.61.27,6.28,6.28,0,0,1-.72.18,5.44,5.44,0,0,1-1,.08,2.77,2.77,0,0,1-1.1-.21,2.32,2.32,0,0,1-.86-.59,2.63,2.63,0,0,1-.56-.91,3.2,3.2,0,0,1-.2-1.19V45.44h1.31v2.64a1.6,1.6,0,0,0,.48,1.2,1.79,1.79,0,0,0,1.28.47,2.89,2.89,0,0,0,.74-.09,3.94,3.94,0,0,0,.61-.21,4.57,4.57,0,0,0,.58-.32V45.44Z"/><path class="b" d="M352.76,51.24a5.46,5.46,0,0,1-.5.82,3.67,3.67,0,0,1-.71.71,3.28,3.28,0,0,1-.91.48,2.91,2.91,0,0,1-1.14.18,3.55,3.55,0,0,1-2.6-1.13,3.92,3.92,0,0,1-.8-1.27,4.13,4.13,0,0,1-.28-1.64,4.54,4.54,0,0,1,.28-1.63,4,4,0,0,1,.79-1.27,3.56,3.56,0,0,1,1.15-.84,3.3,3.3,0,0,1,1.38-.3,3.24,3.24,0,0,1,1.35.29,3.29,3.29,0,0,1,1.12.8,4,4,0,0,1,.75,1.25,4.37,4.37,0,0,1,.29,1.62,2.66,2.66,0,0,1,0,.3c0,.08,0,.15,0,.2a1.77,1.77,0,0,0,0,.2h-5.62a2.51,2.51,0,0,0,.23.83,2.77,2.77,0,0,0,.52.7,2.47,2.47,0,0,0,.71.48,1.86,1.86,0,0,0,.82.19,1.9,1.9,0,0,0,.66-.11,2.58,2.58,0,0,0,.53-.24,1.83,1.83,0,0,0,.39-.31l.27-.31Zm-3.34-4.65a1.84,1.84,0,0,0-.77.17,2.49,2.49,0,0,0-.66.47,2.71,2.71,0,0,0-.5.72,2.8,2.8,0,0,0-.27.92h4.3a2.9,2.9,0,0,0-.73-1.67A1.83,1.83,0,0,0,349.42,46.59Z"/><path class="b" d="M357.84,46.59a2.17,2.17,0,0,0-.89.2,2.34,2.34,0,0,0-.76.57,2.69,2.69,0,0,0-.53.88,3.27,3.27,0,0,0-.19,1.15,3.19,3.19,0,0,0,.19,1.15,3,3,0,0,0,.53.9A2.31,2.31,0,0,0,357,52a2,2,0,0,0,.89.21,1.8,1.8,0,0,0,.73-.15,2,2,0,0,0,.61-.37,2.57,2.57,0,0,0,.47-.52,2.5,2.5,0,0,0,.3-.64h1.31a4,4,0,0,1-.43,1.13,3.52,3.52,0,0,1-.75.92,3.35,3.35,0,0,1-1,.63,2.94,2.94,0,0,1-1.22.22,3.49,3.49,0,0,1-1.43-.3,3.61,3.61,0,0,1-1.18-.83,4.08,4.08,0,0,1-.79-1.27,4.31,4.31,0,0,1-.29-1.64,4.54,4.54,0,0,1,.29-1.63,4,4,0,0,1,.79-1.27,3.79,3.79,0,0,1,1.18-.84,3.49,3.49,0,0,1,1.43-.3,3.09,3.09,0,0,1,1.22.24,3.73,3.73,0,0,1,1,.61,3.57,3.57,0,0,1,.75.93,4,4,0,0,1,.43,1.12H360a2.6,2.6,0,0,0-.3-.63,2.44,2.44,0,0,0-1.08-.89A2,2,0,0,0,357.84,46.59Z"/><path class="b" d="M362.05,45.44h6.24v1.24h-2.46v6.67h-1.32V46.68h-2.46Z"/><path class="b" d="M374.51,49.22a2.57,2.57,0,0,1,.62.41,2.12,2.12,0,0,1,.43.56,1.77,1.77,0,0,1,.19.88,2.21,2.21,0,0,1-.64,1.64,2.23,2.23,0,0,1-1.65.64h-3.77V45.44h3.51a2.46,2.46,0,0,1,.91.17,2.07,2.07,0,0,1,.72.46,2.34,2.34,0,0,1,.48.71,2.06,2.06,0,0,1,.17.86,1.54,1.54,0,0,1-.15.72,2.09,2.09,0,0,1-.33.49A2.18,2.18,0,0,1,374.51,49.22ZM371,46.68v2h2a1.16,1.16,0,0,0,.83-.28.86.86,0,0,0,.31-.68,1,1,0,0,0-.3-.75,1.1,1.1,0,0,0-.84-.3Zm2.28,5.44a1.1,1.1,0,0,0,.8-.34,1.14,1.14,0,0,0,.34-.8.92.92,0,0,0-.09-.39,1,1,0,0,0-.24-.34,1.31,1.31,0,0,0-.37-.24,1.11,1.11,0,0,0-.44-.08H371v2.19Z"/><path class="b" d="M380.57,45.35a3.22,3.22,0,0,1,1.21.23,2.94,2.94,0,0,1,.94.58,2.67,2.67,0,0,1,.62.87,2.3,2.3,0,0,1,.21,1v5.27h-1l-.35-.88a2.62,2.62,0,0,1-.6.49,2.83,2.83,0,0,1-.74.34,3.49,3.49,0,0,1-1,.13,3.06,3.06,0,0,1-1.08-.18,2.41,2.41,0,0,1-.83-.51,2.37,2.37,0,0,1-.53-.76,2.16,2.16,0,0,1-.2-.91,2.2,2.2,0,0,1,.24-1,2,2,0,0,1,.78-.81,4.83,4.83,0,0,1,1.54-.53,12.2,12.2,0,0,1,2.45-.18v-.44a1.38,1.38,0,0,0-.46-1,2,2,0,0,0-2.3-.15,1.68,1.68,0,0,0-.49.84h-1.4a2.6,2.6,0,0,1,.3-.93,2.68,2.68,0,0,1,.6-.75,2.74,2.74,0,0,1,.9-.51A3.52,3.52,0,0,1,380.57,45.35Zm-.7,6.86a2.78,2.78,0,0,0,1-.17,2.53,2.53,0,0,0,.74-.43,1.89,1.89,0,0,0,.48-.59,1.31,1.31,0,0,0,.18-.66v-.61a16.13,16.13,0,0,0-1.91.09,3.86,3.86,0,0,0-1.11.28,1.19,1.19,0,0,0-.54.44,1.38,1.38,0,0,0-.13.59,1,1,0,0,0,.36.73A1.37,1.37,0,0,0,379.87,52.21Z"/></svg>