<svg xmlns="http://www.w3.org/2000/svg" viewBox="0 0 249.2 392.3"><defs><style>.a{fill:#fff;}</style></defs><path class="a" d="M97.57,231.9,75.94,169.69l-65.85-1.34,52.49-39.79-19.08-63,54.07,37.62,54.06-37.62-19.07,63L185,168.35l-65.85,1.34ZM43.62,157.46l40.61.82,13.34,38.37,13.33-38.37,40.61-.82-32.37-24.54L130.9,94l-33.33,23.2L64.23,94,76,132.92Z" transform="translate(-1.74)"/><path class="a" d="M194,161.08l-11.87-34.15L146,126.19l28.82-21.85L164.3,69.73,194,90.38l29.68-20.65-10.47,34.61L242,126.19l-36.16.74Zm-29.62-40.87,22.3.45L194,141.72l7.32-21.06,22.3-.45-17.77-13.48,6.45-21.34L194,98.13,175.67,85.39l6.46,21.34Z" transform="translate(-1.74)"/><path class="a" d="M97.57,91.36,85.69,57.2l-36.15-.74L78.35,34.61,67.88,0,97.57,20.66,127.25,0,116.78,34.61l28.81,21.85-36.15.74ZM68,50.48l22.29.45L97.57,72l7.32-21.07,22.29-.45L109.41,37l6.46-21.35L97.57,28.4,79.26,15.66,85.72,37Z" transform="translate(-1.74)"/><path class="a" d="M41.73,321.94H21.44V268.62H1.74v-19.7H61.43v19.7H41.73Z" transform="translate(-1.74)"/><path class="a" d="M66.65,269.2A19.78,19.78,0,0,1,68.44,261a19.53,19.53,0,0,1,5.22-6.83,26.07,26.07,0,0,1,8.4-4.64,34,34,0,0,1,11.25-1.74,34.45,34.45,0,0,1,11.76,1.91,27.4,27.4,0,0,1,9,5.22,22.3,22.3,0,0,1,5.68,7.76,23.07,23.07,0,0,1,2,9.45L102,273.84a7,7,0,0,0-2.26-5.51,7.67,7.67,0,0,0-5.27-2,6,6,0,0,0-4.23,1.45,4.29,4.29,0,0,0-1.57,3.19q0,2.21,2.55,3.42a46.82,46.82,0,0,0,6.32,2.38q3.76,1.15,8.23,2.61a31.38,31.38,0,0,1,8.23,4,22.62,22.62,0,0,1,6.31,6.67,19.3,19.3,0,0,1,2.55,10.43,19,19,0,0,1-2,8.46,21.72,21.72,0,0,1-5.68,7.19,29.36,29.36,0,0,1-9,5,34.45,34.45,0,0,1-11.76,1.91,36.22,36.22,0,0,1-12.12-1.91,26.28,26.28,0,0,1-9.1-5.33,24.18,24.18,0,0,1-5.73-7.94,23.41,23.41,0,0,1-2-9.74l19.7-1.74a7.91,7.91,0,0,0,8.12,8.11c2.62,0,4.54-.57,5.73-1.73a5,5,0,0,0,1.8-3.48q0-2.2-2.55-3.48A45.79,45.79,0,0,0,92,293.37q-3.77-1.22-8.23-2.78a34.61,34.61,0,0,1-8.23-4.17,22.37,22.37,0,0,1-6.31-6.73A19.62,19.62,0,0,1,66.65,269.2Z" transform="translate(-1.74)"/><path class="a" d="M132.72,248.92h54.47v18H153v9.27h31.3v17.38H153V304h35.35v18H132.72Z" transform="translate(-1.74)"/><path class="a" d="M198.78,248.92h20.29v53.32h31.87v19.7H198.78Z" transform="translate(-1.74)"/><path class="a" d="M19.56,339.45a6.89,6.89,0,0,1,2.79.57,7.36,7.36,0,0,1,3.83,3.83,7.11,7.11,0,0,1,0,5.58,7.3,7.3,0,0,1-1.55,2.29,7.73,7.73,0,0,1-2.28,1.55,6.9,6.9,0,0,1-2.79.58H14.69v8.28H11.28V339.45Zm0,11.16A3.32,3.32,0,0,0,21,350.3a3.79,3.79,0,0,0,1.21-.85,4,4,0,0,0,.83-1.26,3.83,3.83,0,0,0,.31-1.55,3.71,3.71,0,0,0-.31-1.51,4,4,0,0,0-.83-1.26A4.16,4.16,0,0,0,21,343a3.19,3.19,0,0,0-1.43-.33H14.69v7.93Z" transform="translate(-1.74)"/><path class="a" d="M36.1,345.74a7.13,7.13,0,0,1,2.58.45,6.12,6.12,0,0,1,2,1.22A5.59,5.59,0,0,1,42,349.23a5.73,5.73,0,0,1,.45,2.28v10.62H40.08l-.73-1.62a4.73,4.73,0,0,1-1.12.89,6.26,6.26,0,0,1-1.46.63,7.21,7.21,0,0,1-2.11.27A5.87,5.87,0,0,1,30.52,361a4.62,4.62,0,0,1-1.43-3.51,5,5,0,0,1,.47-2.22,3.94,3.94,0,0,1,1.59-1.69,9.71,9.71,0,0,1,3.08-1.09,24.9,24.9,0,0,1,4.93-.4v-.54a2.61,2.61,0,0,0-.77-2,3.22,3.22,0,0,0-2.29-.74,3.77,3.77,0,0,0-2.35.58,2.25,2.25,0,0,0-.88,1.41H29.63a5.07,5.07,0,0,1,1.81-3.61A6.93,6.93,0,0,1,36.1,345.74Zm-1.25,13.68A4.45,4.45,0,0,0,38,358.36a3.37,3.37,0,0,0,1.12-2.56v-.88a25,25,0,0,0-3.49.2,8.29,8.29,0,0,0-2.08.55,2,2,0,0,0-1,.84,2.43,2.43,0,0,0-.26,1.12,1.6,1.6,0,0,0,.65,1.23A2.83,2.83,0,0,0,34.85,359.42Z" transform="translate(-1.74)"/><path class="a" d="M53.73,345.74a2.05,2.05,0,0,1,.47,0l.34.07.28.07v3.25l-.33-.07-.37-.08a1.72,1.72,0,0,0-.39,0,3.79,3.79,0,0,0-1.54.32,4.3,4.3,0,0,0-1.26.87,4,4,0,0,0-.84,1.27,3.71,3.71,0,0,0-.31,1.51v9.18H46.54V345.92h2.34l.72,1.63a5.39,5.39,0,0,1,1-.91,8.12,8.12,0,0,1,1.28-.61A5.25,5.25,0,0,1,53.73,345.74Z" transform="translate(-1.74)"/><path class="a" d="M62.36,356.73a2.48,2.48,0,0,0,2.52,2.51,2.55,2.55,0,0,0,.38,0,2.07,2.07,0,0,0,.37-.05,1.91,1.91,0,0,0,.34-.1V362a2.51,2.51,0,0,1-.51.18,4.41,4.41,0,0,1-1.28.17,5.09,5.09,0,0,1-2-.39,4.84,4.84,0,0,1-2.67-2.86,6.68,6.68,0,0,1-.38-2.32V349H56.25v-3.06h1.26a2.1,2.1,0,0,0,1.55-.61,2.07,2.07,0,0,0,.62-1.54v-2.16h2.68v4.31H66V349H62.36Z" transform="translate(-1.74)"/><path class="a" d="M77.48,345.74a6.16,6.16,0,0,1,2.52.53,6.42,6.42,0,0,1,2.07,1.44,6.65,6.65,0,0,1,1.39,2.21,7.69,7.69,0,0,1,.51,2.85v9.36H80.73v-9.36a3.91,3.91,0,0,0-.3-1.51,4.21,4.21,0,0,0-.84-1.26,3.85,3.85,0,0,0-1.21-.87,3.3,3.3,0,0,0-1.44-.33,3.69,3.69,0,0,0-1.55.33,4,4,0,0,0-1.26.87,4.1,4.1,0,0,0-.84,1.25,3.72,3.72,0,0,0-.31,1.52v9.36H69.75V345.92h2.34l.72,1.63a5.5,5.5,0,0,1,1.1-.91,10.07,10.07,0,0,1,1.46-.61A6.89,6.89,0,0,1,77.48,345.74Z" transform="translate(-1.74)"/><path class="a" d="M102.14,357.45a9.49,9.49,0,0,1-1,1.88,7.2,7.2,0,0,1-1.47,1.55,6.78,6.78,0,0,1-2,1,7.75,7.75,0,0,1-2.54.38A7.54,7.54,0,0,1,89.63,360,7.8,7.8,0,0,1,88,357.38a9.65,9.65,0,0,1,0-6.7,8,8,0,0,1,1.61-2.61A7.35,7.35,0,0,1,92,346.36a7.21,7.21,0,0,1,2.94-.62,7.13,7.13,0,0,1,2.93.62,7.25,7.25,0,0,1,2.41,1.71,8.23,8.23,0,0,1,1.62,2.61,9,9,0,0,1,.6,3.34,5.27,5.27,0,0,1,0,.56c0,.18,0,.33-.07.46s0,.31-.07.42H90.79a3.66,3.66,0,0,0,.44,1.44,4.56,4.56,0,0,0,.92,1.21,4.15,4.15,0,0,0,1.33.82,4.26,4.26,0,0,0,1.63.31,3.92,3.92,0,0,0,2.35-.63,5.86,5.86,0,0,0,1.26-1.16Zm-7.2-8.65a3.78,3.78,0,0,0-2.74,1.1,5.11,5.11,0,0,0-1.41,2.87h8.65A4.93,4.93,0,0,0,98,349.91,4.21,4.21,0,0,0,94.94,348.8Z" transform="translate(-1.74)"/><path class="a" d="M113.1,345.74a2,2,0,0,1,.46,0l.34.07.29.07v3.25l-.34-.07-.37-.08a1.69,1.69,0,0,0-.38,0,3.8,3.8,0,0,0-1.55.32,4.3,4.3,0,0,0-1.26.87,4,4,0,0,0-.84,1.27,3.71,3.71,0,0,0-.31,1.51v9.18h-3.23V345.92h2.33l.72,1.63a5.39,5.39,0,0,1,1-.91,8.12,8.12,0,0,1,1.28-.61A5.26,5.26,0,0,1,113.1,345.74Z" transform="translate(-1.74)"/><path class="a" d="M119.21,356.9a2.73,2.73,0,0,0,.83,1.71,3,3,0,0,0,2.06.63,3.4,3.4,0,0,0,2.19-.57,1.76,1.76,0,0,0,.69-1.4,1.19,1.19,0,0,0-.65-1.09,6.35,6.35,0,0,0-1.61-.64l-2.07-.53a8.51,8.51,0,0,1-2.07-.77,4.82,4.82,0,0,1-1.6-1.34,3.71,3.71,0,0,1-.65-2.29,4.48,4.48,0,0,1,.4-1.89,4.6,4.6,0,0,1,1.11-1.55,5,5,0,0,1,1.75-1.05,6.78,6.78,0,0,1,2.33-.38,6.09,6.09,0,0,1,4.31,1.37,5.31,5.31,0,0,1,1.63,3.68h-3.25a2.32,2.32,0,0,0-.81-1.41,2.77,2.77,0,0,0-1.88-.58,2.81,2.81,0,0,0-1.88.56,1.62,1.62,0,0,0-.65,1.25,1.19,1.19,0,0,0,.65,1.1,6.22,6.22,0,0,0,1.61.62l2.06.52a8.85,8.85,0,0,1,2.07.78,4.77,4.77,0,0,1,1.61,1.35,3.71,3.71,0,0,1,.65,2.29,4.71,4.71,0,0,1-1.55,3.6,6.25,6.25,0,0,1-4.39,1.43,6.33,6.33,0,0,1-4.49-1.41,5.64,5.64,0,0,1-1.63-4Z" transform="translate(-1.74)"/><path class="a" d="M154.12,358.89v3.24H139.9V339.45h3.41v19.44Z" transform="translate(-1.74)"/><path class="a" d="M170.33,357.45a9.49,9.49,0,0,1-1,1.88,7,7,0,0,1-1.48,1.55,6.72,6.72,0,0,1-2,1,7.79,7.79,0,0,1-2.54.38,7.49,7.49,0,0,1-3-.61,7.59,7.59,0,0,1-2.46-1.7,8,8,0,0,1-1.65-2.61,9.65,9.65,0,0,1,0-6.7,8.23,8.23,0,0,1,1.62-2.61,7.25,7.25,0,0,1,2.41-1.71,7.13,7.13,0,0,1,2.93-.62,7.21,7.21,0,0,1,2.94.62,7.35,7.35,0,0,1,2.41,1.71,8,8,0,0,1,1.61,2.61,9,9,0,0,1,.6,3.34,5.25,5.25,0,0,1,0,.56c0,.18-.05.33-.07.46s-.05.31-.07.42H159a3.83,3.83,0,0,0,.44,1.44,4.82,4.82,0,0,0,.93,1.21,4.21,4.21,0,0,0,1.32.82,4.31,4.31,0,0,0,1.64.31,4,4,0,0,0,2.35-.63,5.77,5.77,0,0,0,1.25-1.16Zm-7.21-8.65a3.74,3.74,0,0,0-2.73,1.1,5.12,5.12,0,0,0-1.42,2.87h8.65a4.86,4.86,0,0,0-1.43-2.86A4.24,4.24,0,0,0,163.12,348.8Z" transform="translate(-1.74)"/><path class="a" d="M180.38,345.74a7.13,7.13,0,0,1,2.58.45,6.12,6.12,0,0,1,2,1.22,5.44,5.44,0,0,1,1.29,1.82,5.73,5.73,0,0,1,.45,2.28v10.62h-2.33l-.72-1.62a5,5,0,0,1-1.13.89,6.26,6.26,0,0,1-1.46.63,7.21,7.21,0,0,1-2.11.27A5.87,5.87,0,0,1,174.8,361a4.62,4.62,0,0,1-1.43-3.51,5.16,5.16,0,0,1,.47-2.22,3.91,3.91,0,0,1,1.6-1.69,9.55,9.55,0,0,1,3.07-1.09,24.9,24.9,0,0,1,4.93-.4v-.54a2.58,2.58,0,0,0-.77-2,3.22,3.22,0,0,0-2.29-.74,3.79,3.79,0,0,0-2.35.58,2.25,2.25,0,0,0-.88,1.41h-3.23a5,5,0,0,1,1.81-3.61A6.88,6.88,0,0,1,180.38,345.74Zm-1.24,13.68a4.44,4.44,0,0,0,3.18-1.06,3.37,3.37,0,0,0,1.12-2.56v-.88a25,25,0,0,0-3.49.2,8.29,8.29,0,0,0-2.08.55,2,2,0,0,0-1,.84,2.43,2.43,0,0,0-.26,1.12,1.58,1.58,0,0,0,.66,1.23A2.81,2.81,0,0,0,179.14,359.42Z" transform="translate(-1.74)"/><path class="a" d="M205.05,345.92V361.4a7,7,0,0,1-.53,2.74,6.35,6.35,0,0,1-3.8,3.6,8.69,8.69,0,0,1-3.06.5,8.21,8.21,0,0,1-2.66-.41,7.1,7.1,0,0,1-2.06-1.1,6.43,6.43,0,0,1-2.29-3.53h3.23a4.17,4.17,0,0,0,1.29,1.49,4,4,0,0,0,2.49.67,4.17,4.17,0,0,0,3-1.1,3.83,3.83,0,0,0,1.11-2.86v-1.61a4.73,4.73,0,0,1-1.12.89,6.62,6.62,0,0,1-1.41.63,6.38,6.38,0,0,1-2,.27,6.77,6.77,0,0,1-2.83-.61,7.29,7.29,0,0,1-2.36-1.67,7.71,7.71,0,0,1-1.6-2.5,8.6,8.6,0,0,1,0-6.26,7.82,7.82,0,0,1,1.6-2.5,7.48,7.48,0,0,1,2.36-1.68,6.78,6.78,0,0,1,2.83-.62,6.85,6.85,0,0,1,2.11.29,8.52,8.52,0,0,1,1.44.61,5.43,5.43,0,0,1,1.13.91l.72-1.63Zm-7.35,12.6a3.81,3.81,0,0,0,1.67-.38,4.53,4.53,0,0,0,1.42-1,5.65,5.65,0,0,0,1-1.55,4.71,4.71,0,0,0,.37-1.88,4.79,4.79,0,0,0-.37-1.89,5.71,5.71,0,0,0-1-1.56,4.5,4.5,0,0,0-1.44-1,3.93,3.93,0,0,0-3.37,0,4.54,4.54,0,0,0-1.45,1,5.54,5.54,0,0,0-1,1.55,4.81,4.81,0,0,0-.38,1.9,4.71,4.71,0,0,0,.38,1.88,5.25,5.25,0,0,0,1,1.55,4.73,4.73,0,0,0,1.44,1A3.88,3.88,0,0,0,197.7,358.52Z" transform="translate(-1.74)"/><path class="a" d="M215.84,362.3a6.14,6.14,0,0,1-2.54-.52,6.29,6.29,0,0,1-2.06-1.44,6.65,6.65,0,0,1-1.39-2.21,7.92,7.92,0,0,1-.5-2.84v-9.37h3.24v9.37a3.78,3.78,0,0,0,.31,1.54,4.15,4.15,0,0,0,.82,1.26,3.76,3.76,0,0,0,1.21.84,3.36,3.36,0,0,0,1.44.31,3.75,3.75,0,0,0,1.51-.31,3.87,3.87,0,0,0,1.26-.84,4,4,0,0,0,.87-1.26,3.64,3.64,0,0,0,.33-1.54v-9.37h3.23v16.21h-2.33l-.72-1.62a5,5,0,0,1-1.13.89,6.36,6.36,0,0,1-1.45.63A7.14,7.14,0,0,1,215.84,362.3Z" transform="translate(-1.74)"/><path class="a" d="M241.93,357.45a9.49,9.49,0,0,1-1,1.88,7.25,7.25,0,0,1-1.48,1.55,6.78,6.78,0,0,1-2,1,7.75,7.75,0,0,1-2.54.38,7.48,7.48,0,0,1-3-.61,7.38,7.38,0,0,1-2.46-1.7,8,8,0,0,1-1.65-2.61,9.65,9.65,0,0,1,0-6.7,8.2,8.2,0,0,1,1.61-2.61,7.35,7.35,0,0,1,2.41-1.71,7.21,7.21,0,0,1,2.94-.62,7.13,7.13,0,0,1,2.93.62,7.25,7.25,0,0,1,2.41,1.71,8.23,8.23,0,0,1,1.62,2.61,9,9,0,0,1,.6,3.34,3.52,3.52,0,0,1,0,.56c0,.18-.05.33-.07.46s0,.31-.07.42H230.57a3.66,3.66,0,0,0,.44,1.44,4.78,4.78,0,0,0,.92,1.21,4.15,4.15,0,0,0,1.33.82,4.26,4.26,0,0,0,1.63.31,3.92,3.92,0,0,0,2.35-.63,5.86,5.86,0,0,0,1.26-1.16Zm-7.21-8.65a3.78,3.78,0,0,0-2.74,1.1,5.11,5.11,0,0,0-1.41,2.87h8.65a5,5,0,0,0-1.43-2.86A4.24,4.24,0,0,0,234.72,348.8Z" transform="translate(-1.74)"/><path class="a" d="M67.4,375.57a5.47,5.47,0,0,1,.54-2.37,6.15,6.15,0,0,1,1.54-2,7.9,7.9,0,0,1,2.4-1.4,8.88,8.88,0,0,1,3.08-.52,7.93,7.93,0,0,1,3,.54,7.26,7.26,0,0,1,2.34,1.49,7.08,7.08,0,0,1,1.53,2.24,7,7,0,0,1,.54,2.75H78.91a3.76,3.76,0,0,0-4-4,5.2,5.2,0,0,0-1.71.27,3.87,3.87,0,0,0-1.31.73,3.41,3.41,0,0,0-.84,1.05,2.64,2.64,0,0,0-.29,1.19,2.09,2.09,0,0,0,.91,1.83A8.75,8.75,0,0,0,74,378.51c.88.31,1.85.62,2.9.92a13.46,13.46,0,0,1,2.9,1.23,7.33,7.33,0,0,1,2.23,2,5.53,5.53,0,0,1,.91,3.32,5.12,5.12,0,0,1-.57,2.35,6.46,6.46,0,0,1-1.59,2,7.56,7.56,0,0,1-2.48,1.4,9.71,9.71,0,0,1-3.29.52,9.35,9.35,0,0,1-3.25-.52,7.14,7.14,0,0,1-2.44-1.44,6,6,0,0,1-1.53-2.21,7.71,7.71,0,0,1-.51-2.84h3.41a3.84,3.84,0,0,0,1.08,2.93,4.56,4.56,0,0,0,3.24,1,5.19,5.19,0,0,0,3.4-.93,2.91,2.91,0,0,0,1.1-2.3,2.4,2.4,0,0,0-.9-2,7.58,7.58,0,0,0-2.23-1.2c-.89-.32-1.86-.64-2.9-.95a14.16,14.16,0,0,1-2.9-1.21,7,7,0,0,1-2.23-1.92A5.12,5.12,0,0,1,67.4,375.57Z" transform="translate(-1.74)"/><path class="a" d="M100.17,387.45a9.49,9.49,0,0,1-1,1.88,7.25,7.25,0,0,1-1.48,1.55,6.72,6.72,0,0,1-2,1,7.83,7.83,0,0,1-2.54.38,7.49,7.49,0,0,1-3-.61,7.38,7.38,0,0,1-2.46-1.7A8,8,0,0,1,86,387.38a9.65,9.65,0,0,1,0-6.7,8.23,8.23,0,0,1,1.62-2.61,7.31,7.31,0,0,1,2.4-1.71,7.28,7.28,0,0,1,5.88,0,7.31,7.31,0,0,1,2.4,1.71,8.23,8.23,0,0,1,1.62,2.61,9,9,0,0,1,.6,3.34,3.52,3.52,0,0,1,0,.56,4.12,4.12,0,0,1-.07.46,3,3,0,0,1-.07.42H88.81a3.66,3.66,0,0,0,.44,1.44,4.78,4.78,0,0,0,.92,1.21,4.15,4.15,0,0,0,1.33.82,4.31,4.31,0,0,0,1.64.31,3.91,3.91,0,0,0,2.34-.63,5.86,5.86,0,0,0,1.26-1.16ZM93,378.8a3.74,3.74,0,0,0-2.73,1.1,5.06,5.06,0,0,0-1.42,2.87h8.65A5,5,0,0,0,96,379.91,4.24,4.24,0,0,0,93,378.8Z" transform="translate(-1.74)"/><path class="a" d="M110.22,375.74a7.13,7.13,0,0,1,2.58.45,6.12,6.12,0,0,1,2,1.22,5.42,5.42,0,0,1,1.28,1.82,5.56,5.56,0,0,1,.46,2.28v10.62h-2.34l-.72-1.62a4.73,4.73,0,0,1-1.12.89,6.26,6.26,0,0,1-1.46.63,7.26,7.26,0,0,1-2.11.27,5.87,5.87,0,0,1-4.14-1.34,4.62,4.62,0,0,1-1.43-3.51,5.16,5.16,0,0,1,.46-2.22,4,4,0,0,1,1.6-1.69,9.62,9.62,0,0,1,3.08-1.09,24.84,24.84,0,0,1,4.93-.4v-.54a2.61,2.61,0,0,0-.77-2,3.22,3.22,0,0,0-2.29-.74,3.77,3.77,0,0,0-2.35.58,2.21,2.21,0,0,0-.88,1.41h-3.24a5.07,5.07,0,0,1,1.81-3.61A6.93,6.93,0,0,1,110.22,375.74ZM109,389.42a4.44,4.44,0,0,0,3.18-1.06,3.38,3.38,0,0,0,1.13-2.56v-.88a25,25,0,0,0-3.49.2,8.29,8.29,0,0,0-2.08.55,1.94,1.94,0,0,0-1,.84,2.43,2.43,0,0,0-.26,1.12,1.6,1.6,0,0,0,.65,1.23A2.83,2.83,0,0,0,109,389.42Z" transform="translate(-1.74)"/><path class="a" d="M123,386.9a2.68,2.68,0,0,0,.83,1.71,2.93,2.93,0,0,0,2,.63,3.43,3.43,0,0,0,2.2-.57,1.76,1.76,0,0,0,.69-1.4,1.19,1.19,0,0,0-.65-1.09,6.35,6.35,0,0,0-1.61-.64l-2.08-.53a8.59,8.59,0,0,1-2.06-.77,4.72,4.72,0,0,1-1.6-1.34,3.64,3.64,0,0,1-.65-2.29,4.63,4.63,0,0,1,.39-1.89,4.77,4.77,0,0,1,1.12-1.55,5,5,0,0,1,1.75-1.05,6.74,6.74,0,0,1,2.33-.38,6.11,6.11,0,0,1,4.31,1.37,5.35,5.35,0,0,1,1.63,3.68H128.4a2.42,2.42,0,0,0-.81-1.41,2.77,2.77,0,0,0-1.88-.58,2.81,2.81,0,0,0-1.88.56,1.62,1.62,0,0,0-.65,1.25,1.19,1.19,0,0,0,.65,1.1,6.22,6.22,0,0,0,1.61.62c.63.17,1.32.34,2.06.52a8.85,8.85,0,0,1,2.07.78,4.73,4.73,0,0,1,1.6,1.35,3.64,3.64,0,0,1,.65,2.29,4.7,4.7,0,0,1-1.54,3.6,7.65,7.65,0,0,1-8.88,0,5.6,5.6,0,0,1-1.63-4Z" transform="translate(-1.74)"/><path class="a" d="M149.81,384a9.24,9.24,0,0,1-.59,3.35,7.84,7.84,0,0,1-1.65,2.62,7.63,7.63,0,0,1-2.47,1.7,7.66,7.66,0,0,1-8.52-1.7,7.64,7.64,0,0,1-1.65-2.61,9.81,9.81,0,0,1,0-6.7,7.64,7.64,0,0,1,4.12-4.32,7.69,7.69,0,0,1,6,0,7.64,7.64,0,0,1,4.12,4.32A9.19,9.19,0,0,1,149.81,384Zm-3.24,0a5.54,5.54,0,0,0-.38-2.11,5.66,5.66,0,0,0-1-1.65,4.2,4.2,0,0,0-1.44-1.08,3.93,3.93,0,0,0-3.37,0,4.15,4.15,0,0,0-1.45,1.08,5.59,5.59,0,0,0-1,1.66,5.72,5.72,0,0,0-.38,2.1,5.65,5.65,0,0,0,1.37,3.76,4.15,4.15,0,0,0,1.45,1.08,3.93,3.93,0,0,0,3.37,0,4.2,4.2,0,0,0,1.44-1.08,5.66,5.66,0,0,0,1-1.65A5.47,5.47,0,0,0,146.57,384Z" transform="translate(-1.74)"/><path class="a" d="M161,375.74a6.16,6.16,0,0,1,2.52.53,6.53,6.53,0,0,1,2.07,1.44,6.82,6.82,0,0,1,1.39,2.21,7.69,7.69,0,0,1,.51,2.85v9.36h-3.24v-9.36a3.75,3.75,0,0,0-.31-1.51,4.13,4.13,0,0,0-2-2.13,3.31,3.31,0,0,0-1.45-.33,3.64,3.64,0,0,0-1.54.33,4.08,4.08,0,0,0-2.1,2.12,3.72,3.72,0,0,0-.31,1.52v9.36h-3.24V375.92h2.34l.72,1.63a5.86,5.86,0,0,1,1.11-.91,9.61,9.61,0,0,1,1.46-.61A6.89,6.89,0,0,1,161,375.74Z" transform="translate(-1.74)"/><path class="a" d="M183.45,392.13H180V369.45h3.41Z" transform="translate(-1.74)"/></svg>