<svg xmlns="http://www.w3.org/2000/svg" viewBox="0 0 388.68 132.75"><defs><style>.a{fill:#fff;}</style></defs><path class="a" d="M50.07,132.75,37.69,97.14,0,96.37,30,73.6,19.13,37.51,50.07,59,81,37.51,70.1,73.6l30.05,22.77-37.7.77ZM19.19,90.14l23.25.47,7.63,22,7.64-22L81,90.14l-18.52-14,6.73-22.25L50.07,67.12,31,53.84l6.73,22.25Z"/><path class="a" d="M105.26,92.21,98.47,72.66l-20.7-.42,16.5-12.51-6-19.81,17,11.82,17-11.82-6,19.81,16.5,12.51-20.7.42Zm-17-23.4,12.76.26,4.19,12.06,4.2-12.06,12.76-.26L112.05,61.1l3.69-12.22-10.48,7.29L94.79,48.88,98.48,61.1Z"/><path class="a" d="M50.07,52.3,43.28,32.74l-20.7-.42,16.5-12.51L33.08,0l17,11.82L67.07,0l-6,19.81,16.5,12.51-20.7.42Zm-17-23.4,12.76.26,4.19,12.06,4.2-12.06L67,28.9,56.86,21.18,60.55,9,50.07,16.26,39.6,9l3.69,12.21Z"/><path class="a" d="M170.7,66.13h-6.29V49.6H158.3V43.49h18.51V49.6H170.7Z"/><path class="a" d="M186.87,49.24a5.31,5.31,0,0,1,.72,0,5.68,5.68,0,0,1,.58.13l.5.18v5.93l-.58-.18c-.19-.05-.4-.09-.64-.13a6.06,6.06,0,0,0-.76,0,2.75,2.75,0,0,0-2.05.86,3.3,3.3,0,0,0-.82,2.37v7.73h-5.75V49.6h4.13l.9,1.62a5.12,5.12,0,0,1,1-1,5.68,5.68,0,0,1,1.19-.71A3.91,3.91,0,0,1,186.87,49.24Z"/><path class="a" d="M190.82,45.11a2.76,2.76,0,0,1,.85-2,3.36,3.36,0,0,1,4.42,0,2.91,2.91,0,0,1,0,4.09,3.36,3.36,0,0,1-4.42,0A2.75,2.75,0,0,1,190.82,45.11ZM191,49.6h5.76V66.13H191Z"/><path class="a" d="M199.45,49.78a6.07,6.07,0,0,1,.56-2.55,5.87,5.87,0,0,1,1.62-2.12,8,8,0,0,1,2.6-1.44,10.52,10.52,0,0,1,3.49-.54,10.83,10.83,0,0,1,3.65.59,8.63,8.63,0,0,1,2.78,1.62,7,7,0,0,1,1.76,2.41,7.12,7.12,0,0,1,.61,2.93l-6.11.54a2.17,2.17,0,0,0-.7-1.71,2.37,2.37,0,0,0-1.63-.63,1.87,1.87,0,0,0-1.32.45,1.34,1.34,0,0,0-.48,1,1.17,1.17,0,0,0,.79,1.06,13.69,13.69,0,0,0,2,.73l2.55.81a9.78,9.78,0,0,1,2.55,1.26,7.06,7.06,0,0,1,2,2.07,6.5,6.5,0,0,1,.18,5.86,6.76,6.76,0,0,1-1.76,2.22,9.17,9.17,0,0,1-2.79,1.57,10.73,10.73,0,0,1-3.64.59,11.32,11.32,0,0,1-3.76-.59,8.19,8.19,0,0,1-2.82-1.66,7.33,7.33,0,0,1-2.41-5.48l6.11-.54a2.46,2.46,0,0,0,2.52,2.52,2.51,2.51,0,0,0,1.78-.54,1.53,1.53,0,0,0,.55-1.08,1.21,1.21,0,0,0-.79-1.08,14.08,14.08,0,0,0-2-.77c-.78-.25-1.63-.54-2.55-.86a10.91,10.91,0,0,1-2.55-1.29,7,7,0,0,1-2-2.09A6,6,0,0,1,199.45,49.78Z"/><path class="a" d="M221,54.81h-2.33V50h1.08a1.75,1.75,0,0,0,2-2V45.64h5v4h3.41v5.21h-3.41v3.95a2.45,2.45,0,0,0,.57,1.71,1.82,1.82,0,0,0,1.4.63l.51,0,.39,0a2.47,2.47,0,0,0,.36-.11v5l-.83.29a8.62,8.62,0,0,1-.86.18,6.41,6.41,0,0,1-1,.07,6.24,6.24,0,0,1-4.63-1.67A6.54,6.54,0,0,1,221,60Z"/><path class="a" d="M240.42,49.24a8.41,8.41,0,0,1,3,.5,6.28,6.28,0,0,1,3.72,3.6,7,7,0,0,1,.52,2.73V66.13h-4.13a6.88,6.88,0,0,1-.36-.61l-.29-.52c-.09-.18-.18-.34-.25-.49a8.16,8.16,0,0,1-1.4,1,7.21,7.21,0,0,1-1.55.68,6.24,6.24,0,0,1-1.9.29,6.72,6.72,0,0,1-2.32-.38,5,5,0,0,1-1.74-1,4.84,4.84,0,0,1-1.12-1.54,4.63,4.63,0,0,1-.39-1.89,4.45,4.45,0,0,1,2.15-3.92,9.76,9.76,0,0,1,3-1.2,19.62,19.62,0,0,1,4.55-.45,2.07,2.07,0,0,0-.47-1.46,1.5,1.5,0,0,0-1.15-.52,1.83,1.83,0,0,0-.89.2,1.54,1.54,0,0,0-.54.45,1.67,1.67,0,0,0-.36.61l-5.57-.54A6.36,6.36,0,0,1,234.1,52a7,7,0,0,1,1-1,6.32,6.32,0,0,1,1.33-.9,8.26,8.26,0,0,1,1.76-.63A10.33,10.33,0,0,1,240.42,49.24Zm-.89,12.94a2.21,2.21,0,0,0,1.63-.72,2.47,2.47,0,0,0,.7-1.8v-.54a13.19,13.19,0,0,0-2,.13,3.71,3.71,0,0,0-1.21.36,1.36,1.36,0,0,0-.59.57,1.7,1.7,0,0,0-.16.74,1.17,1.17,0,0,0,.39.9A1.79,1.79,0,0,0,239.53,62.18Z"/><path class="a" d="M259.47,49.24a5.19,5.19,0,0,1,.72,0,5.68,5.68,0,0,1,.58.13l.5.18v5.93l-.58-.18c-.19-.05-.4-.09-.64-.13a6.06,6.06,0,0,0-.76,0,2.75,2.75,0,0,0-2.05.86,3.3,3.3,0,0,0-.82,2.37v7.73h-5.75V49.6h4.13l.9,1.62a5.41,5.41,0,0,1,1-1,5.68,5.68,0,0,1,1.19-.71A3.91,3.91,0,0,1,259.47,49.24Z"/><path class="a" d="M272.41,43.49H289.3v5.57H278.7v2.87h9.7v5.4h-9.7v3.23h11v5.57H272.41Z"/><path class="a" d="M297,60.56a2,2,0,0,0,.36.72,1.54,1.54,0,0,0,.54.5,1.67,1.67,0,0,0,.9.22,1.81,1.81,0,0,0,1.22-.34,1,1,0,0,0,.39-.74c0-.24-.21-.44-.62-.59s-.94-.32-1.57-.49-1.3-.37-2-.61a9.21,9.21,0,0,1-2-.95,5.47,5.47,0,0,1-1.56-1.51,4,4,0,0,1-.63-2.32,4.17,4.17,0,0,1,.47-1.94,5.25,5.25,0,0,1,1.33-1.67,6.39,6.39,0,0,1,2.13-1.17,9,9,0,0,1,2.9-.43,8.07,8.07,0,0,1,5.24,1.45,6.76,6.76,0,0,1,2.31,3.76L301,55a2.6,2.6,0,0,0-.28-.61,1.78,1.78,0,0,0-.49-.45,1.53,1.53,0,0,0-.84-.2q-1.26,0-1.26.9c0,.24.21.43.63.58s.94.3,1.56.46,1.3.36,2,.58a7.34,7.34,0,0,1,2,.93,5.52,5.52,0,0,1,1.57,1.55,4.22,4.22,0,0,1,.62,2.37,4.69,4.69,0,0,1-.46,2,5,5,0,0,1-1.39,1.72,6.73,6.73,0,0,1-2.24,1.19,10,10,0,0,1-3.09.43C297,66.49,295.14,66,294,65a6.81,6.81,0,0,1-2.32-3.92Z"/><path class="a" d="M318.77,49.24a6.29,6.29,0,0,1,2.77.66A8.14,8.14,0,0,1,324,51.74a9.72,9.72,0,0,1,1.71,2.73,9.32,9.32,0,0,1,0,6.79A9.72,9.72,0,0,1,324,64a8.14,8.14,0,0,1-2.43,1.84,6.29,6.29,0,0,1-2.77.66,6.62,6.62,0,0,1-3-.72,4.91,4.91,0,0,1-1.12-.72v6.83h-5.75V49.6H313l.9,1.62a6.7,6.7,0,0,1,1.33-1,7.73,7.73,0,0,1,1.55-.71A6.17,6.17,0,0,1,318.77,49.24Zm-4.31,8.62a3.18,3.18,0,0,0,.92,2.31,2.92,2.92,0,0,0,4.27,0,3.35,3.35,0,0,0,0-4.61,2.92,2.92,0,0,0-4.27,0A3.18,3.18,0,0,0,314.46,57.86Z"/><path class="a" d="M345.73,57.86A8.49,8.49,0,0,1,343.21,64a8.68,8.68,0,0,1-2.8,1.84,9.58,9.58,0,0,1-7,0A8.86,8.86,0,0,1,330.63,64a8.64,8.64,0,0,1,0-12.25,8.86,8.86,0,0,1,2.79-1.84,9.58,9.58,0,0,1,7,0,8.68,8.68,0,0,1,2.8,1.84,8.49,8.49,0,0,1,2.52,6.12Zm-11.86,0a3.18,3.18,0,0,0,.92,2.31,2.92,2.92,0,0,0,4.27,0,3.35,3.35,0,0,0,0-4.61,2.92,2.92,0,0,0-4.27,0A3.18,3.18,0,0,0,333.87,57.86Z"/><path class="a" d="M357.05,49.24a5.31,5.31,0,0,1,.72,0,4.91,4.91,0,0,1,.57.13l.51.18v5.93l-.58-.18c-.19-.05-.4-.09-.64-.13a6.19,6.19,0,0,0-.76,0,2.75,2.75,0,0,0-2.05.86A3.3,3.3,0,0,0,354,58.4v7.73h-5.75V49.6h4.13l.9,1.62a5.12,5.12,0,0,1,1-1,5.68,5.68,0,0,1,1.19-.71A3.91,3.91,0,0,1,357.05,49.24Z"/><path class="a" d="M362.62,54.81h-2.33V50h1.07a1.75,1.75,0,0,0,2-2V45.64h5v4h3.42v5.21h-3.42v3.95a2.41,2.41,0,0,0,.58,1.71,1.82,1.82,0,0,0,1.4.63l.5,0,.4,0a2.47,2.47,0,0,0,.36-.11v5l-.83.29a8.62,8.62,0,0,1-.86.18,6.41,6.41,0,0,1-1,.07,6.26,6.26,0,0,1-4.64-1.67,6.53,6.53,0,0,1-1.65-4.8Z"/><path class="a" d="M379.15,60.56a2.43,2.43,0,0,0,.36.72,1.54,1.54,0,0,0,.54.5,1.67,1.67,0,0,0,.9.22,1.81,1.81,0,0,0,1.22-.34,1,1,0,0,0,.4-.74c0-.24-.21-.44-.63-.59s-.94-.32-1.56-.49-1.3-.37-2-.61a9.29,9.29,0,0,1-2-.95,5.47,5.47,0,0,1-1.56-1.51,4,4,0,0,1-.63-2.32,4.3,4.3,0,0,1,.47-1.94,5.25,5.25,0,0,1,1.33-1.67,6.45,6.45,0,0,1,2.14-1.17,8.91,8.91,0,0,1,2.89-.43,8.12,8.12,0,0,1,5.25,1.45,6.8,6.8,0,0,1,2.3,3.76l-5.39.54a2.63,2.63,0,0,0-.29-.61,1.73,1.73,0,0,0-.48-.45,1.59,1.59,0,0,0-.85-.2q-1.26,0-1.26.9c0,.24.21.43.63.58s.94.3,1.57.46l2,.58a7.48,7.48,0,0,1,2,.93,5.48,5.48,0,0,1,1.56,1.55,4.14,4.14,0,0,1,.63,2.37,4.7,4.7,0,0,1-.47,2,5,5,0,0,1-1.38,1.72,6.69,6.69,0,0,1-2.25,1.19,10,10,0,0,1-3.09.43A8.38,8.38,0,0,1,376.08,65a6.81,6.81,0,0,1-2.32-3.92Z"/><path class="a" d="M159.74,76.49H166V93h9.88v6.11H159.74Z"/><path class="a" d="M193.52,94.1a8.24,8.24,0,0,1-1,2,7.31,7.31,0,0,1-1.62,1.72,7.73,7.73,0,0,1-2.3,1.22,9.76,9.76,0,0,1-6.52-.19A8.75,8.75,0,0,1,179.32,97a8.64,8.64,0,0,1,0-12.25,8.75,8.75,0,0,1,2.79-1.84,9.09,9.09,0,0,1,3.5-.66,8.53,8.53,0,0,1,3.29.63,8.19,8.19,0,0,1,4.49,4.44,8.31,8.31,0,0,1,.67,3.37,4.55,4.55,0,0,1,0,.67c0,.2,0,.39-.07.56s0,.38-.07.57h-11a3.22,3.22,0,0,0,.54,1.08,3.1,3.1,0,0,0,.81.74,2.36,2.36,0,0,0,1.34.34,2.82,2.82,0,0,0,1-.16,2.55,2.55,0,0,0,.66-.38,1.64,1.64,0,0,0,.47-.54Zm-7.91-7.19a2.51,2.51,0,0,0-1.81.7,2.78,2.78,0,0,0-.88,1.64h5.39a2.83,2.83,0,0,0-.88-1.64A2.53,2.53,0,0,0,185.61,86.91Z"/><path class="a" d="M203.94,82.24a8.41,8.41,0,0,1,2.95.5,6.28,6.28,0,0,1,3.72,3.6,7,7,0,0,1,.52,2.73V99.13H207a4,4,0,0,1-.36-.61l-.29-.52c-.09-.18-.18-.34-.25-.49a8.16,8.16,0,0,1-1.4,1,7.21,7.21,0,0,1-1.55.68,6.24,6.24,0,0,1-1.9.29,6.68,6.68,0,0,1-2.32-.38,5,5,0,0,1-1.74-1,4.84,4.84,0,0,1-1.12-1.54,4.63,4.63,0,0,1-.39-1.89,4.45,4.45,0,0,1,2.15-3.92,9.76,9.76,0,0,1,3-1.2,19.62,19.62,0,0,1,4.55-.45,2.12,2.12,0,0,0-.47-1.46,1.5,1.5,0,0,0-1.15-.52,1.8,1.8,0,0,0-.89.2,1.54,1.54,0,0,0-.54.45,1.67,1.67,0,0,0-.36.61l-5.57-.54A6.36,6.36,0,0,1,197.62,85a7,7,0,0,1,.95-1,6.07,6.07,0,0,1,1.33-.9,8.26,8.26,0,0,1,1.76-.63A10.33,10.33,0,0,1,203.94,82.24Zm-.89,12.94a2.21,2.21,0,0,0,1.63-.72,2.47,2.47,0,0,0,.7-1.8v-.54a13.19,13.19,0,0,0-2,.13,3.71,3.71,0,0,0-1.21.36,1.31,1.31,0,0,0-.59.57,1.7,1.7,0,0,0-.16.74,1.17,1.17,0,0,0,.39.9A1.79,1.79,0,0,0,203.05,95.18Z"/><path class="a" d="M225,96.62a5.13,5.13,0,0,1-1,.71,5.59,5.59,0,0,1-1.3.51,6.93,6.93,0,0,1-1.79.21,6.73,6.73,0,0,1-2.83-.61,7.36,7.36,0,0,1-2.35-1.67,8.25,8.25,0,0,1,0-11.25A7.52,7.52,0,0,1,218,82.85a6.73,6.73,0,0,1,2.83-.61,6.11,6.11,0,0,1,2,.3,8,8,0,0,1,1.52.71,7.65,7.65,0,0,1,1.37,1l.9-1.62h4.13V97.51a7.46,7.46,0,0,1-2.34,5.49,8,8,0,0,1-2.67,1.65,9.78,9.78,0,0,1-3.44.59,10.08,10.08,0,0,1-2.37-.25,9.32,9.32,0,0,1-1.87-.65,7.16,7.16,0,0,1-1.45-.91,7.07,7.07,0,0,1-1.06-1.06A7.8,7.8,0,0,1,214,99.49l5.75-.54a1.71,1.71,0,0,0,.5.72,2.5,2.5,0,0,0,.77.5,3,3,0,0,0,1.24.22,2.61,2.61,0,0,0,2-.75,2.93,2.93,0,0,0,.74-2.13Zm0-6.47a3,3,0,0,0-.83-2.21,2.89,2.89,0,0,0-4.09,0,3.36,3.36,0,0,0,0,4.42,2.91,2.91,0,0,0,4.09,0A3,3,0,0,0,225,90.15Z"/><path class="a" d="M241,99.49a7.27,7.27,0,0,1-2.69-.48,5.79,5.79,0,0,1-2.1-1.42,6.48,6.48,0,0,1-1.37-2.27,8.81,8.81,0,0,1-.49-3V82.6h5.75v8.62a3,3,0,0,0,.72,2.13,2.53,2.53,0,0,0,3.6,0,3,3,0,0,0,.72-2.13V82.6h5.75V99.13h-4.14l-.9-1.62A6.85,6.85,0,0,1,243,99.2,6.76,6.76,0,0,1,241,99.49Z"/><path class="a" d="M270.08,94.1a7.93,7.93,0,0,1-1,2,7.48,7.48,0,0,1-1.61,1.72,8,8,0,0,1-2.3,1.22,9.79,9.79,0,0,1-6.53-.19A8.81,8.81,0,0,1,255.88,97a8.64,8.64,0,0,1,0-12.25,8.81,8.81,0,0,1,2.78-1.84,9.14,9.14,0,0,1,3.51-.66,8.57,8.57,0,0,1,3.29.63A8.28,8.28,0,0,1,270,87.31a8.48,8.48,0,0,1,.66,3.37c0,.25,0,.47,0,.67s-.05.39-.07.56-.05.38-.08.57h-11a3.22,3.22,0,0,0,.54,1.08,3.1,3.1,0,0,0,.81.74,2.41,2.41,0,0,0,1.35.34,2.73,2.73,0,0,0,1-.16,2.46,2.46,0,0,0,.67-.38,1.61,1.61,0,0,0,.46-.54Zm-7.91-7.19a2.53,2.53,0,0,0-1.82.7,2.83,2.83,0,0,0-.88,1.64h5.39a2.78,2.78,0,0,0-.88-1.64A2.51,2.51,0,0,0,262.17,86.91Z"/></svg>